<?xml version="1.0" encoding="UTF-8"?>
<svg version="1.1" xmlns="http://www.w3.org/2000/svg" width="755" height="330">
<path d="M0 0 C0.7010309 18.82397787 -1.14265485 40.46870162 -11 57 C-13.6908857 59.47133645 -16.19467637 60.57820993 -19.6875 61.5625 C-20.55632812 61.81 -21.42515625 62.0575 -22.3203125 62.3125 C-25.61959437 63.15896299 -28.93594249 63.85461153 -32.28515625 64.47265625 C-33.13400391 64.73369141 -33.13400391 64.73369141 -34 65 C-34.33 65.66 -34.66 66.32 -35 67 C-34.21625 66.835 -33.4325 66.67 -32.625 66.5 C-28.06033858 65.87039153 -23.59927399 65.91819473 -19 66 C-18.23828125 68.0625 -18.23828125 68.0625 -18 71 C-19.2987764 73.53305375 -20.5774506 75.68509026 -22.1875 78 C-22.58775391 78.60328125 -22.98800781 79.2065625 -23.40039062 79.828125 C-25.7636785 83.35199022 -28.18630391 86.81877615 -31 90 C-31.66 90 -32.32 90 -33 90 C-33 90.66 -33 91.32 -33 92 C-36.3 93.65 -39.6 95.3 -43 97 C-42.67 98.32 -42.34 99.64 -42 101 C-43.35801425 103.27415835 -44.67868506 105.19606122 -46.3125 107.25 C-46.93801758 108.08144531 -46.93801758 108.08144531 -47.57617188 108.9296875 C-48.65974346 110.33297319 -49.82484187 111.6724679 -51 113 C-51.66 113 -52.32 113 -53 113 C-53 113.66 -53 114.32 -53 115 C-63.38878473 125.35918705 -82.20526379 125.68785989 -96 127 C-86.36774517 127.26349633 -77.4994651 126.61693023 -68 125 C-66.890625 126.7734375 -66.890625 126.7734375 -66 129 C-69.1094469 139.17233343 -80.95469339 147.38514725 -89.45703125 152.72265625 C-92.00728267 154.00365811 -94.187763 154.59103914 -97 155 C-95.35 155.33 -93.7 155.66 -92 156 C-92.4946768 160.12701792 -93.37063433 161.91600928 -96.625 164.5 C-103.94708331 169.89150186 -113.13782417 172.41022037 -122 174 C-121.4946875 174.37511719 -120.989375 174.75023437 -120.46875 175.13671875 C-115.09605489 179.36878216 -115.09605489 179.36878216 -114.5625 182.875 C-114.706875 183.57625 -114.85125 184.2775 -115 185 C-118.10837335 184.55594666 -120.95992189 184.01364361 -123.9375 183 C-127.28457619 181.90707716 -130.51018626 181.41877765 -134 181 C-134.09667969 181.91136719 -134.19335938 182.82273438 -134.29296875 183.76171875 C-135.08062047 189.25045111 -136.74506324 194.50556003 -138.3125 199.8125 C-138.60833984 200.84181641 -138.90417969 201.87113281 -139.20898438 202.93164062 C-141.1188981 209.45339786 -143.34864474 215.74287106 -146 222 C-148.3828125 222.125 -148.3828125 222.125 -151 222 C-152.875 220 -152.875 220 -154 217 C-153.59300259 211.26558872 -152.31481838 206.36258191 -150.3125 201 C-150.05065918 200.2788501 -149.78881836 199.5577002 -149.51904297 198.81469727 C-148.68933889 196.53931165 -147.84643272 194.26921136 -147 192 C-146.71334473 191.22769043 -146.42668945 190.45538086 -146.13134766 189.65966797 C-144.43746462 185.10009954 -142.72597382 180.54751257 -141 176 C-141.61359375 176.18949219 -142.2271875 176.37898437 -142.859375 176.57421875 C-146.04948975 177.20874887 -147.31736529 175.76810015 -150 174 C-152.09985559 173.02961219 -154.20627455 172.08148605 -156.328125 171.16015625 C-158 170 -158 170 -158.796875 167.93359375 C-158.86390625 167.29550781 -158.9309375 166.65742188 -159 166 C-158 165 -158 165 -156.15234375 164.90234375 C-154.1015625 164.93489583 -152.05078125 164.96744792 -150 165 C-150.56589844 164.13117188 -151.13179687 163.26234375 -151.71484375 162.3671875 C-152.45625207 161.20345798 -153.19710835 160.03937662 -153.9375 158.875 C-154.49727539 158.02035156 -154.49727539 158.02035156 -155.06835938 157.1484375 C-157.41028893 153.43510776 -158.58174187 150.36847382 -159 146 C-157.35 145.67 -155.7 145.34 -154 145 C-153.01 146.32 -152.02 147.64 -151 149 C-151.23976563 148.05640625 -151.23976563 148.05640625 -151.484375 147.09375 C-153.47474644 135.15152134 -152.53496794 122.53072874 -149 111 C-147.15625 110.37890625 -147.15625 110.37890625 -145 110 C-140.45660981 113.5211274 -138.27895952 117.86915819 -136 123 C-136.28875 122.21238281 -136.5775 121.42476563 -136.875 120.61328125 C-141.34946665 107.48507182 -141.02390624 97.97311196 -135.703125 85.41015625 C-134.03048836 82.06104666 -132.13527061 79.07000526 -130 76 C-129.319375 74.824375 -129.319375 74.824375 -128.625 73.625 C-127.16137912 71.26068935 -125.65872778 68.96382483 -124.0625 66.6875 C-123.57910156 65.99011719 -123.09570312 65.29273438 -122.59765625 64.57421875 C-121 63 -121 63 -117 63 C-116.49596232 64.29009643 -115.99690074 65.58213789 -115.5 66.875 C-115.2215625 67.59429687 -114.943125 68.31359375 -114.65625 69.0546875 C-114 71 -114 71 -114 73 C-112.68 73 -111.36 73 -110 73 C-110.33 71.7625 -110.66 70.525 -111 69.25 C-113.87659167 55.575456 -113.87659167 55.575456 -110.59765625 49.328125 C-106.43910623 43.85142518 -101.36380198 39.55384544 -95.96484375 35.33984375 C-93.38641815 33.30495978 -90.91802578 31.18693422 -88.45776367 29.01220703 C-77.39373668 19.31518383 -64.11810254 9.60467344 -50 5 C-49.01 5.33 -48.02 5.66 -47 6 C-47.33 8.97 -47.66 11.94 -48 15 C-47.34 15 -46.68 15 -46 15 C-45.83564453 14.07767578 -45.83564453 14.07767578 -45.66796875 13.13671875 C-45.43013672 11.92435547 -45.43013672 11.92435547 -45.1875 10.6875 C-44.96126953 9.48673828 -44.96126953 9.48673828 -44.73046875 8.26171875 C-43.88106654 5.63175149 -43.22692601 4.62755643 -41 3 C-32.68727499 0.1313449 -23.57851884 -0.48810684 -14.875 -1.3125 C-13.86727539 -1.41312744 -12.85955078 -1.51375488 -11.82128906 -1.61743164 C-10.38994629 -1.7391272 -10.38994629 -1.7391272 -8.9296875 -1.86328125 C-7.64940674 -1.97603394 -7.64940674 -1.97603394 -6.34326172 -2.09106445 C-3.73147697 -1.98956459 -2.22574972 -1.32677808 0 0 Z M-53 45 C-53.33 45.66 -53.66 46.32 -54 47 C-53.01 46.67 -52.02 46.34 -51 46 C-51.66 45.67 -52.32 45.34 -53 45 Z M-64 56 C-65.46451579 57.41027446 -66.9213893 58.82848796 -68.375 60.25 C-69.18710938 61.03890625 -69.99921875 61.8278125 -70.8359375 62.640625 C-72.75583143 64.73379455 -73.91633685 66.40397179 -75 69 C-71.64138305 67.56590028 -69.64125061 65.80630679 -67.25 63.0625 C-66.63640625 62.37285156 -66.0228125 61.68320313 -65.390625 60.97265625 C-63.71191263 58.99359462 -63.71191263 58.99359462 -64 56 Z M-43 66 C-39 67 -39 67 -39 67 Z M-77 71 C-85.20631131 79.02855728 -92.44228334 87.64532987 -98.3984375 97.46875 C-99.92532579 99.88197832 -101.56963959 102.0407005 -103.375 104.25 C-106.96525469 108.73580136 -109.83140875 113.54857799 -112.73168945 118.4934082 C-114.73196214 121.90151749 -116.78077263 125.20711967 -119.0625 128.4375 C-125.56081059 138.00445725 -131.6514458 149.96623946 -135 161 C-134.67 161.99 -134.34 162.98 -134 164 C-130.90321932 158.64018728 -128.06006692 153.17061049 -125.3125 147.625 C-123.87854423 144.74822003 -122.44000235 141.8737574 -121 139 C-120.43321533 137.86498047 -120.43321533 137.86498047 -119.85498047 136.70703125 C-112.52136152 122.10704622 -104.21181092 108.15183277 -93.91796875 95.41796875 C-92.2546949 93.32109193 -90.64655886 91.19900115 -89.05078125 89.05078125 C-88.51839844 88.33422363 -87.98601562 87.61766602 -87.4375 86.87939453 C-86.37664471 85.44845121 -85.31795024 84.01590268 -84.26171875 82.58154297 C-81.70047349 79.13609818 -79.15942185 75.93321026 -76 73 C-76.495 72.01 -76.495 72.01 -77 71 Z M-111 76 C-110 78 -110 78 -110 78 Z M-136 164 C-135 166 -135 166 -135 166 Z M-137 166 C-137.66 167.98 -138.32 169.96 -139 172 C-138.01 171.01 -137.02 170.02 -136 169 C-136.33 168.01 -136.66 167.02 -137 166 Z M-140 173 C-139 175 -139 175 -139 175 Z " fill="#232E5F" transform="translate(188,73)"/>
<path d="M0 0 C0.86753906 -0.00128906 1.73507812 -0.00257813 2.62890625 -0.00390625 C3.54285156 -0.00003906 4.45679688 0.00382813 5.3984375 0.0078125 C6.28917969 0.00394531 7.17992187 0.00007812 8.09765625 -0.00390625 C9.84945209 -0.00132629 11.60136269 0.02268171 13.35253906 0.06933594 C15.45826269 0.12454854 17.56563488 0.10767145 19.671875 0.078125 C22.7734375 1.1328125 22.7734375 1.1328125 23.91040039 2.76757812 C25.01381085 5.18298222 25.8955236 7.62666154 26.7734375 10.1328125 C27.56855994 12.08151698 28.3724422 14.02666297 29.18359375 15.96875 C30.06912481 18.14786242 30.95316486 20.32758117 31.8359375 22.5078125 C32.82029872 24.93099518 33.8046741 27.35417211 34.7890625 29.77734375 C35.29238217 31.01771473 35.79563761 32.25811178 36.29882812 33.49853516 C38.55765486 39.06557072 40.82075172 44.63086167 43.0859375 50.1953125 C43.74323853 51.81058838 43.74323853 51.81058838 44.41381836 53.45849609 C47.10901832 60.07341984 49.82013399 66.68156801 52.54296875 73.28515625 C52.86322525 74.06198257 53.18348175 74.8388089 53.51344299 75.63917542 C55.09626058 79.47766341 56.68055551 83.3155337 58.2668457 87.15258789 C58.84458314 88.55223811 59.42230215 89.95189594 60 91.3515625 C60.26613602 91.99403427 60.53227203 92.63650604 60.80647278 93.29844666 C61.87648771 95.89289713 62.88552191 98.46906573 63.7734375 101.1328125 C62.7734375 103.1328125 62.7734375 103.1328125 61.09375 103.75 C54.27992008 104.87416723 47.01921879 104.30718429 40.1484375 103.8828125 C39.37242187 103.83640625 38.59640625 103.79 37.796875 103.7421875 C35.7734375 103.1328125 35.7734375 103.1328125 32.7734375 99.1328125 C31.1234375 94.1828125 29.4734375 89.2328125 27.7734375 84.1328125 C8.9634375 83.6378125 8.9634375 83.6378125 -10.2265625 83.1328125 C-10.8865625 86.1028125 -11.5465625 89.0728125 -12.2265625 92.1328125 C-13.4563259 96.10494829 -14.90652662 99.65275868 -17.2265625 103.1328125 C-19.7890827 103.47211891 -22.12175763 103.62174969 -24.69140625 103.64453125 C-25.43934952 103.66248245 -26.18729279 103.68043365 -26.957901 103.69892883 C-29.3598955 103.75315539 -31.7616979 103.78686277 -34.1640625 103.8203125 C-35.74807507 103.85349825 -37.33206087 103.88798908 -38.91601562 103.92382812 C-65.22482885 104.4874487 -65.22482885 104.4874487 -70.2265625 103.1328125 C-71.9765625 100.8203125 -71.9765625 100.8203125 -73.2265625 98.1328125 C-73.7834375 97.4315625 -74.3403125 96.7303125 -74.9140625 96.0078125 C-76.2265625 94.1328125 -76.2265625 94.1328125 -76.2265625 91.1328125 C-76.8865625 91.1328125 -77.5465625 91.1328125 -78.2265625 91.1328125 C-79.5465625 88.8228125 -80.8665625 86.5128125 -82.2265625 84.1328125 C-85.03832849 87.53913693 -87.51029718 91.01385077 -89.8515625 94.7578125 C-91.61668342 97.57121484 -93.38411838 100.36914633 -95.2265625 103.1328125 C-97.59326172 103.59692383 -97.59326172 103.59692383 -100.53125 103.71484375 C-101.58957031 103.75931641 -102.64789063 103.80378906 -103.73828125 103.84960938 C-105.40310547 103.89698242 -105.40310547 103.89698242 -107.1015625 103.9453125 C-108.20371094 103.99623047 -109.30585938 104.04714844 -110.44140625 104.09960938 C-119.42622413 104.42166542 -119.42622413 104.42166542 -123.2265625 102.1328125 C-122.7315625 100.1528125 -122.7315625 100.1528125 -122.2265625 98.1328125 C-121.5665625 98.1328125 -120.9065625 98.1328125 -120.2265625 98.1328125 C-119.98035156 97.4315625 -119.73414063 96.7303125 -119.48046875 96.0078125 C-118.04628298 92.71946133 -116.23861766 90.05987445 -114.1640625 87.1328125 C-113.77428223 86.57392334 -113.38450195 86.01503418 -112.98291016 85.43920898 C-110.90042551 82.45869968 -108.77519337 79.51722568 -106.59765625 76.60546875 C-106.17943604 76.03376953 -105.76121582 75.46207031 -105.33032227 74.87304688 C-104.15970192 73.27469539 -102.97091993 71.68969251 -101.78125 70.10546875 C-99.97397752 67.2358415 -99.97397752 67.2358415 -100.3046875 64.046875 C-101.24665074 61.06931324 -102.33080327 59.00825349 -104.1015625 56.4453125 C-107.67990766 51.06658909 -110.94389208 45.54554111 -114.1640625 39.9453125 C-114.66083496 39.08268799 -115.15760742 38.22006348 -115.66943359 37.33129883 C-116.85710889 35.26625488 -118.0428843 33.2001494 -119.2265625 31.1328125 C-121.24046654 34.15366857 -122.37285346 36.87019944 -123.66015625 40.2578125 C-123.89369308 40.86809296 -124.12722992 41.47837341 -124.36784363 42.10714722 C-124.87217295 43.42519228 -125.3750137 44.74380769 -125.87652588 46.06292725 C-127.21942186 49.59246544 -128.57573043 53.11682236 -129.93359375 56.640625 C-130.20983582 57.35759552 -130.48607788 58.07456604 -130.77069092 58.81326294 C-133.81315835 66.68661957 -136.99618604 74.50113577 -140.20947266 82.30615234 C-142.49840644 87.87067216 -144.74988412 93.44486639 -146.92578125 99.0546875 C-147.36519043 100.1802002 -147.80459961 101.30571289 -148.25732422 102.46533203 C-149.08159239 104.58268071 -149.89771059 106.70322991 -150.70361328 108.82763672 C-154.40009575 118.28408714 -159.33855105 127.63921748 -168.2265625 133.1328125 C-178.71021208 137.15178321 -187.89231013 137.23719642 -198.2265625 133.1328125 C-198.45719739 126.90567053 -197.83850954 121.16878935 -196.2265625 115.1328125 C-194.47343566 113.37968566 -191.85882656 113.9219945 -189.4765625 113.8203125 C-185.61610857 113.52229646 -183.51488501 113.29427311 -180.1015625 111.3828125 C-178.05173734 108.92302231 -176.9693603 107.25256326 -176.2265625 104.1328125 C-176.72830282 99.42261443 -178.14667144 95.47041858 -179.95703125 91.109375 C-180.22993484 90.44553802 -180.50283844 89.78170105 -180.78401184 89.0977478 C-181.65482787 86.98195597 -182.53389539 84.8697293 -183.4140625 82.7578125 C-184.55687978 80.00143447 -185.69581025 77.24347837 -186.83203125 74.484375 C-187.11536819 73.79730972 -187.39870514 73.11024445 -187.69062805 72.40235901 C-189.94945944 66.89026573 -192.05486594 61.3285873 -194.12237549 55.74238586 C-195.54182212 51.91899058 -197.02138316 48.13247752 -198.59765625 44.37109375 C-198.94376953 43.54287109 -199.28988281 42.71464844 -199.64648438 41.86132812 C-200.3443683 40.20435612 -201.05053867 38.55085699 -201.76367188 36.90039062 C-202.10076172 36.08634766 -202.43785156 35.27230469 -202.78515625 34.43359375 C-203.08736084 33.72372314 -203.38956543 33.01385254 -203.70092773 32.2824707 C-204.2265625 30.1328125 -204.2265625 30.1328125 -203.2265625 25.1328125 C-190.3565625 25.6278125 -190.3565625 25.6278125 -177.2265625 26.1328125 C-173.85040773 34.01050695 -173.85040773 34.01050695 -172.8762207 37.00097656 C-172.65621902 37.67147034 -172.43621735 38.34196411 -172.20954895 39.03277588 C-171.98442123 39.73094421 -171.75929352 40.42911255 -171.52734375 41.1484375 C-171.2874321 41.88608337 -171.04752045 42.62372925 -170.80033875 43.38372803 C-170.29873737 44.9294322 -169.79882405 46.47568511 -169.30053711 48.02246094 C-168.53614168 50.39186618 -167.76349203 52.75847419 -166.99023438 55.125 C-166.50210537 56.6326511 -166.01445794 58.14045822 -165.52734375 59.6484375 C-165.29614334 60.35470276 -165.06494293 61.06096802 -164.82673645 61.78863525 C-163.89761488 64.6918374 -163.2265625 67.06341179 -163.2265625 70.1328125 C-160.27577568 68.65741909 -160.08313755 66.33022159 -159.06921387 63.35406494 C-158.66757019 62.13852936 -158.66757019 62.13852936 -158.2578125 60.8984375 C-157.97683716 60.06826111 -157.69586182 59.23808472 -157.40637207 58.38275146 C-156.506108 55.71840239 -155.61604446 53.05077837 -154.7265625 50.3828125 C-153.83502805 47.72986003 -152.94142391 45.07761646 -152.04675293 42.42572021 C-151.49018705 40.77369703 -150.93581265 39.12093348 -150.38391113 37.46734619 C-146.76818776 26.67443776 -146.76818776 26.67443776 -145.2265625 25.1328125 C-143.67753381 25.02394355 -142.12360346 24.98376958 -140.57080078 24.97167969 C-139.57952179 24.96207214 -138.5882428 24.9524646 -137.56692505 24.94256592 C-136.48780853 24.93831604 -135.40869202 24.93406616 -134.296875 24.9296875 C-133.19560272 24.92398743 -132.09433044 24.91828735 -130.95968628 24.91241455 C-128.62433844 24.90294773 -126.28897714 24.89642393 -123.95361328 24.89257812 C-120.37378716 24.88287275 -116.79453495 24.85186466 -113.21484375 24.8203125 C-110.95052426 24.81378287 -108.68620064 24.80853224 -106.421875 24.8046875 C-105.34680695 24.7923407 -104.27173889 24.7799939 -103.16409302 24.76727295 C-102.1665097 24.77027405 -101.16892639 24.77327515 -100.14111328 24.77636719 C-99.26254669 24.77272156 -98.3839801 24.76907593 -97.47879028 24.76531982 C-94.74974418 25.21061424 -93.92463554 26.0013422 -92.2265625 28.1328125 C-91.42984011 29.34665132 -90.6771104 30.59022274 -89.96484375 31.85546875 C-89.56845703 32.55865234 -89.17207031 33.26183594 -88.76367188 33.98632812 C-88.35955078 34.71529297 -87.95542969 35.44425781 -87.5390625 36.1953125 C-86.91547852 37.29456055 -86.91547852 37.29456055 -86.27929688 38.41601562 C-83.2265625 43.87484606 -83.2265625 43.87484606 -83.2265625 46.1328125 C-82.5665625 46.1328125 -81.9065625 46.1328125 -81.2265625 46.1328125 C-81.0409375 45.1840625 -80.8553125 44.2353125 -80.6640625 43.2578125 C-79.14405244 37.82128016 -75.54066737 33.60372756 -72.2265625 29.1328125 C-71.2365625 27.6478125 -71.2365625 27.6478125 -70.2265625 26.1328125 C-67.61279297 25.70043945 -67.61279297 25.70043945 -64.34375 25.62109375 C-63.17714844 25.58564453 -62.01054687 25.55019531 -60.80859375 25.51367188 C-59.58527344 25.49111328 -58.36195313 25.46855469 -57.1015625 25.4453125 C-55.87050781 25.41115234 -54.63945313 25.37699219 -53.37109375 25.34179688 C-50.3230074 25.25909686 -47.27521679 25.19001823 -44.2265625 25.1328125 C-43.18695984 28.33875731 -43.10259688 28.8725532 -44.640625 32.1015625 C-45.36411493 33.2869847 -46.10227562 34.46352527 -46.8515625 35.6328125 C-47.24529053 36.26775635 -47.63901855 36.9027002 -48.04467773 37.55688477 C-49.42106161 39.7605171 -50.82078757 41.94781332 -52.2265625 44.1328125 C-52.78972168 45.00921387 -53.35288086 45.88561523 -53.93310547 46.78857422 C-57.66953311 52.58844785 -61.43643368 58.3679059 -65.2265625 64.1328125 C-60.86844576 72.78353385 -55.59142583 80.46984355 -49.93359375 88.3125 C-47.87730802 91.17348028 -45.97444821 94.06950764 -44.2265625 97.1328125 C-40.75089068 90.5178242 -38.03059438 83.72833896 -35.3515625 76.7578125 C-30.43122188 64.08279055 -25.30270568 51.50170192 -20.08642578 38.94580078 C-16.67367602 30.72052304 -13.37571224 22.46369194 -10.2265625 14.1328125 C-9.9495752 13.40263916 -9.67258789 12.67246582 -9.38720703 11.92016602 C-9.15372559 11.30455811 -8.92024414 10.6889502 -8.6796875 10.0546875 C-8.28265625 9.00796875 -7.885625 7.96125 -7.4765625 6.8828125 C-7.06921875 5.80515625 -6.661875 4.7275 -6.2421875 3.6171875 C-4.68282572 -0.19725131 -3.95919674 0.0056664 0 0 Z M8.7734375 30.1328125 C3.8234375 45.4778125 3.8234375 45.4778125 -1.2265625 61.1328125 C1.6815625 61.3184375 4.5896875 61.5040625 7.5859375 61.6953125 C8.95455933 61.78727905 8.95455933 61.78727905 10.35083008 61.88110352 C11.07423584 61.92420654 11.7976416 61.96730957 12.54296875 62.01171875 C13.65055542 62.08241577 13.65055542 62.08241577 14.78051758 62.15454102 C16.98532542 62.23210888 16.98532542 62.23210888 19.7734375 61.1328125 C17.69372288 54.03844986 15.44284691 47.01457449 13.0859375 40.0078125 C12.76560547 39.05132812 12.44527344 38.09484375 12.11523438 37.109375 C11.33602717 34.78338334 10.55541076 32.45787539 9.7734375 30.1328125 C9.4434375 30.1328125 9.1134375 30.1328125 8.7734375 30.1328125 Z " fill="#222E60" transform="translate(568.2265625,133.8671875)"/>
<path d="M0 0 C2.49493573 0.00537123 4.98989564 0.03401189 7.484375 0.08203125 C11.04392179 0.18990176 11.04392179 0.18990176 13.9921875 -0.09765625 C16.82568926 -0.19255822 18.57846121 0.0024203 21.19140625 1.1328125 C24.57980211 4.44887807 27.18852538 8.18546922 29.81689453 12.10400391 C31.75021469 14.95762567 33.7834915 17.73460063 35.81298828 20.52026367 C37.46539119 22.79076932 39.10475023 25.07024589 40.7421875 27.3515625 C44.33617365 32.34613859 47.97683597 37.3056052 51.62890625 42.2578125 C52.19577148 43.02689941 52.76263672 43.79598633 53.34667969 44.58837891 C56.93840234 49.45407053 60.56023462 54.29651269 64.19140625 59.1328125 C64.20020561 58.06832382 64.20020561 58.06832382 64.20918274 56.98233032 C64.26703391 50.30160597 64.33906617 43.62120374 64.42712116 36.94080544 C64.47189115 33.50613363 64.51113197 30.07158225 64.5378418 26.63671875 C64.56877335 22.6898436 64.62356477 18.74347574 64.6796875 14.796875 C64.68607742 13.56039215 64.69246735 12.3239093 64.6990509 11.04995728 C64.71884506 9.90892548 64.73863922 8.76789368 64.7590332 7.59228516 C64.77013626 6.5841275 64.78123932 5.57596985 64.79267883 4.53726196 C64.92425888 3.74379364 65.05583893 2.95032532 65.19140625 2.1328125 C68.5405805 -0.09997033 69.39269842 -0.07675782 73.26171875 0.12109375 C74.24011719 0.16814453 75.21851563 0.21519531 76.2265625 0.26367188 C77.75603516 0.35358398 77.75603516 0.35358398 79.31640625 0.4453125 C80.85748047 0.51782227 80.85748047 0.51782227 82.4296875 0.59179688 C90.04790669 0.98931294 90.04790669 0.98931294 91.19140625 2.1328125 C91.29207659 5.23252014 91.32754925 8.30998921 91.32080078 11.41015625 C91.32342926 12.87100143 91.32342926 12.87100143 91.32611084 14.36135864 C91.33053124 17.59769444 91.3275907 20.8339761 91.32421875 24.0703125 C91.32489174 26.30851248 91.32586171 28.54671238 91.32711792 30.78491211 C91.32859515 35.48259169 91.32643954 40.1802523 91.32177734 44.87792969 C91.31608005 50.91441864 91.31935892 56.95086314 91.32534981 62.98735046 C91.32895475 67.61112811 91.32781714 72.23489514 91.32522202 76.8586731 C91.32455256 79.08513392 91.32538181 81.3115957 91.32770157 83.53805542 C91.33022699 86.64388605 91.32638905 89.7496436 91.32080078 92.85546875 C91.32282501 93.78537628 91.32484924 94.71528381 91.32693481 95.67337036 C91.30566852 102.01855023 91.30566852 102.01855023 90.19140625 103.1328125 C86.09569537 103.46967992 81.9866866 103.45785608 77.87890625 103.5078125 C76.14737305 103.56388672 76.14737305 103.56388672 74.38085938 103.62109375 C65.88783251 103.70981951 65.88783251 103.70981951 62.75390625 101.11328125 C61.98046875 99.63794922 61.98046875 99.63794922 61.19140625 98.1328125 C60.30630122 96.86078474 59.40504758 95.59991501 58.4921875 94.34765625 C57.49502844 92.92261985 56.49898162 91.49680468 55.50390625 90.0703125 C51.91209385 84.94712418 48.28467065 79.86836274 44.50390625 74.8828125 C36.97040818 64.92880421 30.10219757 54.52281519 23.19140625 44.1328125 C23.19584747 44.82772293 23.2002887 45.52263336 23.2048645 46.23860168 C23.24493265 52.78633288 23.27538626 59.33402988 23.29503059 65.88185596 C23.30546945 69.24819479 23.31963034 72.61443235 23.34228516 75.98071289 C23.36648436 79.85045065 23.37787817 83.72004426 23.38671875 87.58984375 C23.39704132 88.79929153 23.40736389 90.00873932 23.41799927 91.25483704 C23.41815033 92.37577255 23.41830139 93.49670807 23.41845703 94.65161133 C23.42289825 95.63978348 23.42733948 96.62795563 23.43191528 97.64607239 C23.19140625 100.1328125 23.19140625 100.1328125 21.19140625 103.1328125 C18.66943359 103.47338867 18.66943359 103.47338867 15.52734375 103.42578125 C14.40585937 103.41611328 13.284375 103.40644531 12.12890625 103.39648438 C10.36546875 103.3587793 10.36546875 103.3587793 8.56640625 103.3203125 C6.79136719 103.30000977 6.79136719 103.30000977 4.98046875 103.27929688 C2.05033086 103.24385166 -0.87890834 103.19444019 -3.80859375 103.1328125 C-4.98167547 98.93755038 -4.94874049 94.87098576 -4.93798828 90.54394531 C-4.9397406 89.6783902 -4.94149292 88.81283508 -4.94329834 87.92105103 C-4.94769958 85.05932612 -4.94478388 82.19766304 -4.94140625 79.3359375 C-4.94208003 77.34299711 -4.94305068 75.35005681 -4.94430542 73.3571167 C-4.94578026 69.17752298 -4.94363559 64.99795062 -4.93896484 60.81835938 C-4.93328248 55.47430331 -4.93653844 50.13029763 -4.94253731 44.78624344 C-4.94616131 40.6683108 -4.94499563 36.55038998 -4.94240952 32.43245697 C-4.94174457 30.46297957 -4.94255351 28.49350109 -4.94488907 26.52402496 C-4.94744415 23.76240729 -4.94353426 21.00086957 -4.93798828 18.23925781 C-4.94001251 17.43273773 -4.94203674 16.62621765 -4.94412231 15.79525757 C-4.88656323 0.23107531 -4.88656323 0.23107531 0 0 Z " fill="#212D5F" transform="translate(264.80859375,133.8671875)"/>
<path d="M0 0 C1.12019531 -0.00128906 2.24039063 -0.00257813 3.39453125 -0.00390625 C4.57402344 -0.00003906 5.75351562 0.00382813 6.96875 0.0078125 C8.73798828 0.00201172 8.73798828 0.00201172 10.54296875 -0.00390625 C12.22326172 -0.00197266 12.22326172 -0.00197266 13.9375 0 C14.97326172 0.00112793 16.00902344 0.00225586 17.07617188 0.00341797 C19.46875 0.1328125 19.46875 0.1328125 20.46875 1.1328125 C20.57366098 3.35066858 20.60732208 5.57191042 20.61401367 7.79223633 C20.61737228 8.48821426 20.6207309 9.1841922 20.62419128 9.90126038 C20.6337305 12.21413941 20.63564609 14.52694624 20.63671875 16.83984375 C20.63993004 18.44309011 20.64329401 20.04633618 20.64680481 21.64958191 C20.65280405 25.01647623 20.65464397 28.38334485 20.65405273 31.75024414 C20.65395124 36.06462957 20.66758657 40.37884995 20.68482494 44.6931963 C20.69594627 48.00718441 20.69797188 51.32113269 20.69744301 54.63513756 C20.69862357 56.22554784 20.70304965 57.81595913 20.71077538 59.40635109 C20.72057496 61.63275288 20.71769713 63.85879751 20.71166992 66.08520508 C20.71309494 67.35237869 20.71451996 68.61955231 20.71598816 69.92512512 C20.46875 73.1328125 20.46875 73.1328125 18.46875 77.1328125 C10.54875 77.1328125 2.62875 77.1328125 -5.53125 77.1328125 C-6.19125 75.8128125 -6.85125 74.4928125 -7.53125 73.1328125 C-7.03625 72.6378125 -7.03625 72.6378125 -6.53125 72.1328125 C-6.44219376 69.92929301 -6.4243994 67.72287734 -6.43359375 65.51757812 C-6.43505402 64.82653488 -6.43651428 64.13549164 -6.4380188 63.42350769 C-6.44183316 61.91857697 -6.44795843 60.41365079 -6.45608521 58.90873718 C-6.46879403 56.53082381 -6.4753502 54.15296588 -6.48022461 51.77502441 C-6.49168173 46.72759566 -6.51092506 41.68021232 -6.53125 36.6328125 C-6.55479227 30.78643625 -6.57520448 24.94008607 -6.58718872 19.09367371 C-6.59370095 16.74425812 -6.60620941 14.39492145 -6.61889648 12.04553223 C-6.62252725 10.61303782 -6.6258792 9.18054268 -6.62890625 7.74804688 C-6.63414307 6.49197632 -6.63937988 5.23590576 -6.64477539 3.94177246 C-6.44709565 -0.94941951 -4.37205492 0.00476111 0 0 Z " fill="#202C5E" transform="translate(645.53125,159.8671875)"/>
<path d="M0 0 C4.81706073 2.3630864 7.6369136 5.18293927 10 10 C10.83393237 14.73979927 10.47162763 18.05674474 8.3125 22.375 C5.00114163 26.13383923 2.46649408 27.61979783 -2.375 28.875 C-6.82506179 29.02845041 -9.14489157 28.2131178 -13 26 C-16.17369027 22.96429626 -17.75139922 20.83902765 -19 16.625 C-19 11.42499564 -18.08530421 7.33328633 -14.5546875 3.3828125 C-10.07382604 -0.30608275 -5.66339541 -1.10580896 0 0 Z " fill="#232D5D" transform="translate(657,126)"/>
<path d="M0 0 C1.5 1.1875 1.5 1.1875 3 3 C3.1875 5.6875 3.1875 5.6875 3 8 C4.093125 7.79375 5.18625 7.5875 6.3125 7.375 C10 7 10 7 13 9 C12.67 9.66 12.34 10.32 12 11 C13.65 11.99 15.3 12.98 17 14 C16.40895235 18.84659077 15.02055843 22.60748167 13 27 C13.66 26.67 14.32 26.34 15 26 C15 27.65 15 29.3 15 31 C14.01 31 13.02 31 12 31 C11.01 31.66 10.02 32.32 9 33 C5.3501866 32.59622455 2.08823028 30.76352127 -1.1875 29.1875 C-2.25355469 28.68605469 -3.31960937 28.18460938 -4.41796875 27.66796875 C-7 26 -7 26 -7.92578125 23.86328125 C-7.95027344 23.24839844 -7.97476562 22.63351563 -8 22 C-7 21 -7 21 -5.15234375 20.90234375 C-3.1015625 20.93489583 -1.05078125 20.96744792 1 21 C0.43410156 20.13117188 -0.13179687 19.26234375 -0.71484375 18.3671875 C-1.45625207 17.20345798 -2.19710835 16.03937662 -2.9375 14.875 C-3.31068359 14.30523437 -3.68386719 13.73546875 -4.06835938 13.1484375 C-6.41028893 9.43510776 -7.58174187 6.36847382 -8 2 C-6.35 1.67 -4.7 1.34 -3 1 C-2.01 2.32 -1.02 3.64 0 5 C0 3.35 0 1.7 0 0 Z " fill="#2C3966" transform="translate(37,217)"/>
<path d="M0 0 C0.33 0 0.66 0 1 0 C1 2.64 1 5.28 1 8 C1.66 7.67 2.32 7.34 3 7 C2.835 6.38125 2.67 5.7625 2.5 5.125 C2 3 2 3 2 1 C2.99 1 3.98 1 5 1 C5 1.66 5 2.32 5 3 C6.32 3.33 7.64 3.66 9 4 C8.70867188 4.92296875 8.41734375 5.8459375 8.1171875 6.796875 C7.7028124 8.11448507 7.28877935 9.43220273 6.875 10.75 C6.65489258 11.45068604 6.43478516 12.15137207 6.20800781 12.87329102 C4.89713089 17.06690878 3.61645997 21.26806426 2.3671875 25.48046875 C2.09793457 26.38764648 1.82868164 27.29482422 1.55126953 28.22949219 C1.02080161 30.02228626 0.49309159 31.81589888 -0.03173828 33.61035156 C-0.2739209 34.42858398 -0.51610352 35.24681641 -0.765625 36.08984375 C-0.97993164 36.82066162 -1.19423828 37.55147949 -1.41503906 38.30444336 C-2 40 -2 40 -3 41 C-5.375 41.375 -5.375 41.375 -8 41 C-9.875 39 -9.875 39 -11 36 C-10.59495114 30.14860187 -9.23384126 25.15721276 -7.1875 19.6875 C-6.92050293 18.95345947 -6.65350586 18.21941895 -6.37841797 17.46313477 C-5.84326978 15.99429298 -5.30461348 14.52672388 -4.76220703 13.06054688 C-3.70103368 10.19177588 -2.66461503 7.31414087 -1.625 4.4375 C-1.08420707 2.95801366 -0.5429357 1.47870133 0 0 Z " fill="#303A64" transform="translate(45,254)"/>
<path d="M0 0 C1.03930664 0.08507812 1.03930664 0.08507812 2.09960938 0.171875 C3.79648446 0.31230604 5.49215248 0.46719407 7.1875 0.625 C7.1875 0.955 7.1875 1.285 7.1875 1.625 C1.5775 2.285 -4.0325 2.945 -9.8125 3.625 C-0.13036988 3.82259449 8.64186965 3.24978814 18.1875 1.625 C19.3203125 3.37109375 19.3203125 3.37109375 20.1875 5.625 C18.50903305 10.13263546 15.33481345 14.16733277 11.1875 16.625 C10.8575 16.295 10.5275 15.965 10.1875 15.625 C9.5275 16.285 8.8675 16.945 8.1875 17.625 C7.1975 17.955 6.2075 18.285 5.1875 18.625 C5.39375 18.0475 5.6 17.47 5.8125 16.875 C6.27411261 14.10532433 5.61694945 12.97938733 4.1875 10.625 C4.8475 10.625 5.5075 10.625 6.1875 10.625 C6.5175 9.965 6.8475 9.305 7.1875 8.625 C6.8575 8.295 6.5275 7.965 6.1875 7.625 C6.1875 6.965 6.1875 6.305 6.1875 5.625 C0.2475 5.625 -5.6925 5.625 -11.8125 5.625 C-12.1425 4.305 -12.4725 2.985 -12.8125 1.625 C-8.45953089 -0.58952021 -4.73245366 -0.45286638 0 0 Z " fill="#232D60" transform="translate(101.8125,196.375)"/>
<path d="M0 0 C1.32 0 2.64 0 4 0 C4 13.86 4 27.72 4 42 C3.01 41.67 2.02 41.34 1 41 C-0.23180134 37.30459598 -0.12412112 33.89696622 -0.09765625 30.05078125 C-0.0962413 29.27816452 -0.09482635 28.50554779 -0.09336853 27.70951843 C-0.08777466 25.24380611 -0.07522333 22.77818485 -0.0625 20.3125 C-0.05748421 18.63997527 -0.05292144 16.96744912 -0.04882812 15.29492188 C-0.03780724 11.19657954 -0.02054684 7.09830521 0 3 C-1.32 2.67 -2.64 2.34 -4 2 C-2.68 2 -1.36 2 0 2 C0 1.34 0 0.68 0 0 Z " fill="#2C3360" transform="translate(662,161)"/>
<path d="M0 0 C0.33 0 0.66 0 1 0 C1 1.65 1 3.3 1 5 C1.66 5 2.32 5 3 5 C3 11.33333333 3 17.66666667 3 24 C3.0116286 25.98437553 3.02336227 27.96875045 3.03515625 29.953125 C3.04448048 32.38541587 3.05358584 34.81770759 3.0625 37.25 C3.07087891 38.46558594 3.07925781 39.68117187 3.08789062 40.93359375 C3.12087994 53.03407619 3.12087994 53.03407619 2 58 C0.0625 59.5 0.0625 59.5 -2 60 C-2.66 59.67 -3.32 59.34 -4 59 C-4.625 56.9375 -4.625 56.9375 -5 55 C-3.35 55.66 -1.7 56.32 0 57 C0 38.19 0 19.38 0 0 Z " fill="#1C2553" transform="translate(331,139)"/>
<path d="M0 0 C0.33 0 0.66 0 1 0 C1 16.83 1 33.66 1 51 C-3.98276864 46.01723136 -3.98276864 46.01723136 -4.02172852 41.45629883 C-3.95103149 39.97166138 -3.95103149 39.97166138 -3.87890625 38.45703125 C-3.83056641 37.38388672 -3.78222656 36.31074219 -3.73242188 35.20507812 C-3.67634766 34.08552734 -3.62027344 32.96597656 -3.5625 31.8125 C-3.51029297 30.68134766 -3.45808594 29.55019531 -3.40429688 28.38476562 C-3.27456193 25.5895672 -3.13959359 22.7947206 -3 20 C-2.34 19.67 -1.68 19.34 -1 19 C-0.67 12.73 -0.34 6.46 0 0 Z " fill="#646A88" transform="translate(287,181)"/>
<path d="M0 0 C1.22763565 0.00212242 1.22763565 0.00212242 2.48007202 0.00428772 C5.09873075 0.00989335 7.71730454 0.02244677 10.3359375 0.03515625 C12.10937377 0.04017053 13.88281137 0.04473356 15.65625 0.04882812 C20.00784532 0.05986461 24.359377 0.077133 28.7109375 0.09765625 C28.7109375 1.43098958 28.7109375 2.76432292 28.7109375 4.09765625 C15.8409375 4.09765625 2.9709375 4.09765625 -10.2890625 4.09765625 C-10.2890625 3.10765625 -10.2890625 2.11765625 -10.2890625 1.09765625 C-7.06302705 -0.51536148 -3.54196212 -0.02287974 0 0 Z " fill="#131D48" transform="translate(567.2890625,212.90234375)"/>
<path d="M0 0 C0.66 0 1.32 0 2 0 C1.87243993 5.74020334 0.20430207 10.8878062 -2.8828125 15.73046875 C-10.15790706 21.02724812 -21.34888432 19.3422486 -30 19 C-30 18.01 -30 17.02 -30 16 C-29.33613281 15.93941406 -28.67226563 15.87882813 -27.98828125 15.81640625 C-22.65127932 15.33384246 -22.65127932 15.33384246 -17.375 14.4375 C-13.89767142 13.79693947 -10.53308474 13.94011721 -7 14 C-6.566875 12.88625 -6.566875 12.88625 -6.125 11.75 C-5.17697356 9.43260203 -4.15154089 7.22082885 -3 5 C-2.34 5 -1.68 5 -1 5 C-0.67 3.35 -0.34 1.7 0 0 Z " fill="#1E284F" transform="translate(479,219)"/>
<path d="M0 0 C0.33 0 0.66 0 1 0 C1.0231211 12.89072255 1.04091389 25.7814402 1.05181217 38.67217922 C1.05704151 44.65719266 1.06414008 50.64219196 1.07543945 56.62719727 C1.08626653 62.39783429 1.09227645 68.16845768 1.09487724 73.93910408 C1.09673182 76.14602943 1.10035304 78.352954 1.10573006 80.55987358 C1.1129381 83.63946041 1.11399104 86.71899014 1.11352539 89.79858398 C1.11712067 90.72071182 1.12071594 91.64283966 1.12442017 92.59291077 C1.11405216 98.88594784 1.11405216 98.88594784 0 100 C-2.33297433 100.04092937 -4.66705225 100.04241723 -7 100 C-7 99.01 -7 98.02 -7 97 C-5.02 97 -3.04 97 -1 97 C-0.67 64.99 -0.34 32.98 0 0 Z " fill="#30365F" transform="translate(355,137)"/>
<path d="M0 0 C1.47436523 0.07734375 1.47436523 0.07734375 2.97851562 0.15625 C4.00267578 0.22070312 5.02683594 0.28515625 6.08203125 0.3515625 C7.63567383 0.43664062 7.63567383 0.43664062 9.22070312 0.5234375 C11.77934396 0.66492916 14.33700609 0.81634116 16.89453125 0.9765625 C16.89453125 1.3065625 16.89453125 1.6365625 16.89453125 1.9765625 C10.95453125 2.4715625 10.95453125 2.4715625 4.89453125 2.9765625 C4.89453125 3.3065625 4.89453125 3.6365625 4.89453125 3.9765625 C3.80140625 4.0384375 2.70828125 4.1003125 1.58203125 4.1640625 C-2.25065282 4.58255061 -2.25065282 4.58255061 -3.98046875 7.5390625 C-4.35171875 8.3434375 -4.72296875 9.1478125 -5.10546875 9.9765625 C-5.43546875 9.9765625 -5.76546875 9.9765625 -6.10546875 9.9765625 C-6.43546875 27.1365625 -6.76546875 44.2965625 -7.10546875 61.9765625 C-7.76546875 61.6465625 -8.42546875 61.3165625 -9.10546875 60.9765625 C-9.04432178 53.31823238 -8.96726262 45.66020377 -8.86975384 38.00225258 C-8.82498148 34.44651164 -8.78574113 30.89088709 -8.7590332 27.33496094 C-8.72810437 23.249051 -8.67331371 19.16376703 -8.6171875 15.078125 C-8.61079758 13.79789459 -8.60440765 12.51766418 -8.5978241 11.19863892 C-8.57802994 10.01756561 -8.55823578 8.83649231 -8.5378418 7.61962891 C-8.52673874 6.57594147 -8.51563568 5.53225403 -8.50419617 4.4569397 C-8.37261612 3.63841522 -8.24103607 2.81989075 -8.10546875 1.9765625 C-4.7389507 -0.26778287 -3.88949887 -0.22482652 0 0 Z " fill="#5E6187" transform="translate(338.10546875,134.0234375)"/>
<path d="M0 0 C1.79237442 2.68856164 2.98446183 4.9533855 4 8 C3 10 3 10 1.3203125 10.6171875 C-5.49351742 11.74135473 -12.75421871 11.17437179 -19.625 10.75 C-20.78902344 10.68039063 -20.78902344 10.68039063 -21.9765625 10.609375 C-24.76849282 9.76856201 -25.62704809 8.52475721 -27 6 C-26.67 5.01 -26.34 4.02 -26 3 C-26 3.66 -26 4.32 -26 5 C-17.27245708 6.90915001 -8.9068308 7.12219737 0 7 C0 4.69 0 2.38 0 0 Z " fill="#2E3457" transform="translate(628,227)"/>
<path d="M0 0 C0 5.28 0 10.56 0 16 C-0.33 16 -0.66 16 -1 16 C-1.33 11.38 -1.66 6.76 -2 2 C-4.37531394 1.9456035 -6.74935883 1.90614136 -9.125 1.875 C-9.79015625 1.85824219 -10.4553125 1.84148437 -11.140625 1.82421875 C-15.5273336 1.7812118 -18.91080019 2.47870329 -23 4 C-28.09791157 5.03799842 -32.27398243 5.59168706 -37 3 C-37 2.67 -37 2.34 -37 2 C-6.94710327 -3.47355164 -6.94710327 -3.47355164 0 0 Z " fill="#585D7E" transform="translate(188,73)"/>
<path d="M0 0 C0.33 0 0.66 0 1 0 C1 2.64 1 5.28 1 8 C1.66 7.67 2.32 7.34 3 7 C2.835 6.38125 2.67 5.7625 2.5 5.125 C2 3 2 3 2 1 C2.99 1 3.98 1 5 1 C5 1.66 5 2.32 5 3 C6.32 3.33 7.64 3.66 9 4 C7.68 7.96 6.36 11.92 5 16 C4.34 14.68 3.68 13.36 3 12 C2.34 12 1.68 12 1 12 C1 12.66 1 13.32 1 14 C0.34 13.67 -0.32 13.34 -1 13 C-1.99 13 -2.98 13 -4 13 C-3.52140759 11.39566191 -3.04210442 9.79153584 -2.5625 8.1875 C-2.29566406 7.29417969 -2.02882812 6.40085937 -1.75390625 5.48046875 C-1.19612127 3.64526945 -0.60655425 1.81966274 0 0 Z " fill="#293B64" transform="translate(45,254)"/>
<path d="M0 0 C1.72508386 3.00133756 2.25579006 5.17434052 2.265625 8.625 C2.26820313 9.49640625 2.27078125 10.3678125 2.2734375 11.265625 C2.26570312 12.16796875 2.25796875 13.0703125 2.25 14 C2.25773438 14.90234375 2.26546875 15.8046875 2.2734375 16.734375 C2.27085937 17.60578125 2.26828125 18.4771875 2.265625 19.375 C2.26336914 20.16648438 2.26111328 20.95796875 2.25878906 21.7734375 C1.97336112 24.22919493 1.22452681 25.86954224 0 28 C-1.65 28 -3.3 28 -5 28 C-3.68 27.67 -2.36 27.34 -1 27 C-1.0721875 26.28457031 -1.144375 25.56914062 -1.21875 24.83203125 C-2.65383017 9.42485109 -2.65383017 9.42485109 -2 2 C-1.34 1.34 -0.68 0.68 0 0 Z " fill="#2E355D" transform="translate(664,209)"/>
<path d="M0 0 C0.33 0.99 0.66 1.98 1 3 C1.99 3.33 2.98 3.66 4 4 C4.33 6.31 4.66 8.62 5 11 C3.35 11 1.7 11 0 11 C-0.103125 11.680625 -0.20625 12.36125 -0.3125 13.0625 C-1.14725019 16.62915989 -2.49472754 19.66222194 -4 23 C-4.66 23 -5.32 23 -6 23 C-5.50387003 14.89654389 -2.679915 7.59474067 0 0 Z " fill="#36416A" transform="translate(418,170)"/>
<path d="M0 0 C1.03930664 0.08507812 1.03930664 0.08507812 2.09960938 0.171875 C3.79648446 0.31230604 5.49215248 0.46719407 7.1875 0.625 C7.1875 0.955 7.1875 1.285 7.1875 1.625 C1.5775 2.285 -4.0325 2.945 -9.8125 3.625 C-0.13036988 3.82259449 8.64186965 3.24978814 18.1875 1.625 C18.5175 2.285 18.8475 2.945 19.1875 3.625 C12.19240914 5.46238684 5.83788156 5.87411312 -1.375 5.75 C-2.38369141 5.74097656 -3.39238281 5.73195312 -4.43164062 5.72265625 C-6.89218457 5.69933356 -9.35220896 5.66660763 -11.8125 5.625 C-12.1425 4.305 -12.4725 2.985 -12.8125 1.625 C-8.45953089 -0.58952021 -4.73245366 -0.45286638 0 0 Z " fill="#5B5F7B" transform="translate(101.8125,196.375)"/>
<path d="M0 0 C3 1 3 1 4 3 C2.35 3.33 0.7 3.66 -1 4 C-0.4946875 4.37511719 0.010625 4.75023437 0.53125 5.13671875 C5.90394511 9.36878216 5.90394511 9.36878216 6.4375 12.875 C6.293125 13.57625 6.14875 14.2775 6 15 C1.80530429 14.40075776 -2.00999834 13.42500059 -6 12 C-6 11.67 -6 11.34 -6 11 C-3.36 11 -0.72 11 2 11 C1.175 10.443125 0.35 9.88625 -0.5 9.3125 C-3 7 -3 7 -3.5 4.375 C-3 2 -3 2 0 0 Z " fill="#3A476B" transform="translate(67,243)"/>
<path d="M0 0 C1.65 0 3.3 0 5 0 C6.76462683 3.08809695 7 4.23312136 7 8 C7.639375 8.185625 8.27875 8.37125 8.9375 8.5625 C11 10 11 10 11.75 13.625 C11.87375 15.295625 11.87375 15.295625 12 17 C11.01 16.34 10.02 15.68 9 15 C9 14.01 9 13.02 9 12 C8.34 12 7.68 12 7 12 C5.02 8.535 5.02 8.535 3 5 C1.35 6.65 -0.3 8.3 -2 10 C-2.17942163 6.05272412 -2.09350689 3.4019487 0 0 Z " fill="#212C59" transform="translate(483,213)"/>
<path d="M0 0 C1.39212184 2.78424368 0.70702801 4.47026515 0.125 7.5 C-0.05804688 8.4796875 -0.24109375 9.459375 -0.4296875 10.46875 C-1 13 -1 13 -2 15 C-2.66 15 -3.32 15 -4 15 C-4 15.66 -4 16.32 -4 17 C-4.99 16.67 -5.98 16.34 -7 16 C-7 13 -7 10 -7 7 C-6.34 7 -5.68 7 -5 7 C-4.34 5.68 -3.68 4.36 -3 3 C-2.34 3 -1.68 3 -1 3 C-0.67 2.01 -0.34 1.02 0 0 Z " fill="#1E2B59" transform="translate(424,216)"/>
<path d="M0 0 C-0.61277612 2.96175123 -1.25372522 4.38058783 -3 7 C-2.67 7.66 -2.34 8.32 -2 9 C-2.99 9 -3.98 9 -5 9 C-5 12.63 -5 16.26 -5 20 C-5.99 19.67 -6.98 19.34 -8 19 C-8.91331924 8.69978858 -8.91331924 8.69978858 -6.734375 4.64453125 C-2.78891753 0 -2.78891753 0 0 0 Z " fill="#40496E" transform="translate(84,118)"/>
<path d="M0 0 C2.0625 0.4375 2.0625 0.4375 4 1 C3.67 1.99 3.34 2.98 3 4 C3.66386719 4.09796875 4.32773437 4.1959375 5.01171875 4.296875 C10.37285726 5.20474663 14.02036413 6.02036413 18 10 C17.34 10.66 16.68 11.32 16 12 C12.35018007 11.58170603 9.08859539 9.76369693 5.8125 8.1875 C4.74644531 7.68605469 3.68039063 7.18460938 2.58203125 6.66796875 C0 5 0 5 -0.92578125 2.86328125 C-0.95027344 2.24839844 -0.97476562 1.63351563 -1 1 C-0.67 0.67 -0.34 0.34 0 0 Z " fill="#57657B" transform="translate(30,238)"/>
<path d="M0 0 C0.66 0.99 1.32 1.98 2 3 C2 2.34 2 1.68 2 1 C2.66 1 3.32 1 4 1 C4.33 2.65 4.66 4.3 5 6 C4.34 6 3.68 6 3 6 C3 7.98 3 9.96 3 12 C2.34 12 1.68 12 1 12 C1 11.34 1 10.68 1 10 C-1.97 9.505 -1.97 9.505 -5 9 C-4.75 5.625 -4.75 5.625 -4 2 C-1.9375 0.5625 -1.9375 0.5625 0 0 Z " fill="#1B2A56" transform="translate(44,265)"/>
<path d="M0 0 C0 3.35093432 -0.42761038 3.93349807 -2.375 6.5 C-2.81585938 7.0878125 -3.25671875 7.675625 -3.7109375 8.28125 C-4.13632813 8.8484375 -4.56171875 9.415625 -5 10 C-5.99 11.485 -5.99 11.485 -7 13 C-9.46800047 11.84826645 -11.04783565 10.95216435 -13 9 C-12.195625 8.566875 -11.39125 8.13375 -10.5625 7.6875 C-7.72153646 6.19525998 -7.72153646 6.19525998 -7 3 C-3.4375 1.3125 -3.4375 1.3125 0 0 Z " fill="#121E51" transform="translate(157,99)"/>
<path d="M0 0 C0.66 1.32 1.32 2.64 2 4 C7.94 4 13.88 4 20 4 C20 4.66 20 5.32 20 6 C20.66 6 21.32 6 22 6 C21.67 6.66 21.34 7.32 21 8 C20.34 7.67 19.68 7.34 19 7 C19 6.34 19 5.68 19 5 C18.01 5.33 17.02 5.66 16 6 C16.33 6.66 16.66 7.32 17 8 C15.54176788 8.0270043 14.08339325 8.04639787 12.625 8.0625 C11.81289062 8.07410156 11.00078125 8.08570313 10.1640625 8.09765625 C8 8 8 8 6 7 C6 6.34 6 5.68 6 5 C3.69 4.67 1.38 4.34 -1 4 C-1.33 3.01 -1.66 2.02 -2 1 C-1.34 0.67 -0.68 0.34 0 0 Z " fill="#1C2854" transform="translate(88,198)"/>
<path d="M0 0 C1.32 0 2.64 0 4 0 C5.75 2.5 5.75 2.5 7 5 C5.68 4.67 4.36 4.34 3 4 C3.33 5.65 3.66 7.3 4 9 C4.66 9 5.32 9 6 9 C6.33 10.98 6.66 12.96 7 15 C7.66 15 8.32 15 9 15 C8.67 16.32 8.34 17.64 8 19 C6.86863414 17.44210317 5.74517679 15.87846143 4.625 14.3125 C3.99851562 13.44238281 3.37203125 12.57226562 2.7265625 11.67578125 C-1.24628616 5.51876466 -1.24628616 5.51876466 -0.625 1.6875 C-0.41875 1.130625 -0.2125 0.57375 0 0 Z " fill="#3F465F" transform="translate(30,218)"/>
<path d="M0 0 C3.3 0 6.6 0 10 0 C11.00772958 3.1959424 11.19442012 4.57177563 9.78515625 7.67578125 C9.21667969 8.54589844 8.64820313 9.41601562 8.0625 10.3125 C7.49660156 11.19550781 6.93070313 12.07851562 6.34765625 12.98828125 C5.90292969 13.65214844 5.45820313 14.31601563 5 15 C4.67 13.68 4.34 12.36 4 11 C4.66 11 5.32 11 6 11 C5.65213292 9.02463255 5.65213292 9.02463255 5 7 C4.34 6.67 3.68 6.34 3 6 C4.32 4.68 5.64 3.36 7 2 C4.69 1.67 2.38 1.34 0 1 C0 0.67 0 0.34 0 0 Z " fill="#48506D" transform="translate(159,139)"/>
<path d="M0 0 C0.99 0 1.98 0 3 0 C0.41874331 8.17397951 -2.77011881 16.06640834 -6 24 C-6.33 24 -6.66 24 -7 24 C-7 22.35 -7 20.7 -7 19 C-6.34 19 -5.68 19 -5 19 C-5.103125 18.0925 -5.20625 17.185 -5.3125 16.25 C-5.37259095 10.42117777 -2.38444244 5.18616232 0 0 Z " fill="#414971" transform="translate(434,192)"/>
<path d="M0 0 C2.9834386 2.9834386 4.10349052 6.63362016 5.6875 10.5 C6.02072266 11.28503906 6.35394531 12.07007813 6.69726562 12.87890625 C7.00728516 13.63042969 7.31730469 14.38195312 7.63671875 15.15625 C8.06537231 16.18975586 8.06537231 16.18975586 8.50268555 17.24414062 C9 19 9 19 8 21 C7.01 21 6.02 21 5 21 C3.17674118 16.95712175 1.75240729 13.38904255 1 9 C0.67 8.34 0.34 7.68 0 7 C-0.04022391 4.6670134 -0.04320247 2.33293334 0 0 Z " fill="#464D72" transform="translate(604,169)"/>
<path d="M0 0 C0.66 0 1.32 0 2 0 C0.56045392 4.29516739 -1.59646052 7.23247656 -4.5 10.6875 C-5.2940625 11.64011719 -6.088125 12.59273437 -6.90625 13.57421875 C-9 16 -9 16 -11 18 C-11 17.34 -11 16.68 -11 16 C-11.66 15.67 -12.32 15.34 -13 15 C-9.24617479 10.0345655 -5.53779589 5.27086672 -1 1 C-0.67 0.67 -0.34 0.34 0 0 Z " fill="#494F70" transform="translate(103,149)"/>
<path d="M0 0 C0.98613281 0.04833984 1.97226562 0.09667969 2.98828125 0.14648438 C4.53708984 0.2305957 4.53708984 0.2305957 6.1171875 0.31640625 C7.15746094 0.36861328 8.19773437 0.42082031 9.26953125 0.47460938 C11.84403866 0.60451571 14.41818046 0.73948877 16.9921875 0.87890625 C16.9921875 1.20890625 16.9921875 1.53890625 16.9921875 1.87890625 C11.0521875 2.37390625 11.0521875 2.37390625 4.9921875 2.87890625 C4.9921875 3.20890625 4.9921875 3.53890625 4.9921875 3.87890625 C3.8990625 3.94078125 2.8059375 4.00265625 1.6796875 4.06640625 C-2.15299657 4.48489436 -2.15299657 4.48489436 -3.8828125 7.44140625 C-4.2540625 8.24578125 -4.6253125 9.05015625 -5.0078125 9.87890625 C-5.3378125 9.87890625 -5.6678125 9.87890625 -6.0078125 9.87890625 C-6.3378125 6.90890625 -6.6678125 3.93890625 -7.0078125 0.87890625 C-4.45798817 -0.39600591 -2.84315826 -0.14705991 0 0 Z " fill="#405175" transform="translate(338.0078125,134.12109375)"/>
<path d="M0 0 C-0.60183749 2.02045442 -1.27306096 4.02111039 -2 6 C-2.99 6.495 -2.99 6.495 -4 7 C-4 6.34 -4 5.68 -4 5 C-5.98 5.66 -7.96 6.32 -10 7 C-11.125 3.25 -11.125 3.25 -10 1 C-6.70581806 -0.22006738 -3.47634765 -0.0790079 0 0 Z " fill="#1D2857" transform="translate(122,200)"/>
<path d="M0 0 C3.05370544 3.05370544 2.50970348 6.70378399 2.6875 10.8125 C2.73455078 11.62009766 2.78160156 12.42769531 2.83007812 13.25976562 C3.03427428 17.34703613 3.07721915 21.00699971 2 25 C1.34 25 0.68 25 0 25 C0 16.75 0 8.5 0 0 Z " fill="#0B1349" transform="translate(639,179)"/>
<path d="M0 0 C0.99 0.66 1.98 1.32 3 2 C3 2.99 3 3.98 3 5 C7.29 5.33 11.58 5.66 16 6 C16 6.33 16 6.66 16 7 C13.25034772 7.19511725 10.50057868 7.38136433 7.75 7.5625 C6.58404297 7.64661133 6.58404297 7.64661133 5.39453125 7.73242188 C4.64042969 7.78076172 3.88632812 7.82910156 3.109375 7.87890625 C2.41811523 7.9260376 1.72685547 7.97316895 1.01464844 8.02172852 C-1.13617072 7.99853136 -2.94084871 7.5995764 -5 7 C-5.33 5.68 -5.66 4.36 -6 3 C-4.68 3.33 -3.36 3.66 -2 4 C-2 3.34 -2 2.68 -2 2 C-1.34 2 -0.68 2 0 2 C0 1.34 0 0.68 0 0 Z " fill="#313960" transform="translate(522,230)"/>
<path d="M0 0 C3 1 3 1 4 3 C-12.97289448 7.82478219 -12.97289448 7.82478219 -19.25 4.98046875 C-19.8275 4.65691406 -20.405 4.33335937 -21 4 C-20.67 3.34 -20.34 2.68 -20 2 C-19.34 2.33 -18.68 2.66 -18 3 C-11.22228677 3.52760642 -5.97343772 3.5227966 0 0 Z " fill="#5E6378" transform="translate(396,264)"/>
<path d="M0 0 C3.875 1.75 3.875 1.75 5 4 C4.01 4 3.02 4 2 4 C1.71125 4.969375 1.4225 5.93875 1.125 6.9375 C0 10 0 10 -2 11 C-2.66 11.99 -3.32 12.98 -4 14 C-3.91276622 12.22825181 -3.80458345 10.45752623 -3.6875 8.6875 C-3.62949219 7.70136719 -3.57148437 6.71523437 -3.51171875 5.69921875 C-2.95377187 2.75615543 -2.31459868 1.81817001 0 0 Z " fill="#4D5A76" transform="translate(41,183)"/>
<path d="M0 0 C0.66 0.33 1.32 0.66 2 1 C0.71291613 6.54436129 -0.91864693 11.70201036 -3 17 C-3.99 17 -4.98 17 -6 17 C-5.00481422 10.49200879 -3.60861828 5.5332147 0 0 Z " fill="#2F385A" transform="translate(563,137)"/>
<path d="M0 0 C-0.33 2.97 -0.66 5.94 -1 9 C-0.34 9 0.32 9 1 9 C1.33 8.01 1.66 7.02 2 6 C2 7.32 2 8.64 2 10 C1.34 10 0.68 10 0 10 C-0.33 10.66 -0.66 11.32 -1 12 C-1.33 11.01 -1.66 10.02 -2 9 C-2.66 9 -3.32 9 -4 9 C-4.33 6.69 -4.66 4.38 -5 2 C-5.99 1.67 -6.98 1.34 -8 1 C-3.375 -1.125 -3.375 -1.125 0 0 Z " fill="#535981" transform="translate(141,79)"/>
<path d="M0 0 C0.33 0 0.66 0 1 0 C1 3.96 1 7.92 1 12 C-5.17880183 13.54470046 -10.80008972 13.23998206 -17 12 C-14.88615923 10.12103043 -13.52348843 9.07074168 -10.6875 8.6875 C-7.32024971 9.07904073 -4.22936231 9.98686672 -1 11 C-0.67 7.37 -0.34 3.74 0 0 Z " fill="#141E4E" transform="translate(662,224)"/>
<path d="M0 0 C0.66 0.33 1.32 0.66 2 1 C2 9.91 2 18.82 2 28 C1.67 28 1.34 28 1 28 C-1.68371602 8.90248513 -1.68371602 8.90248513 -1 1 C-0.67 0.67 -0.34 0.34 0 0 Z " fill="#121D4A" transform="translate(640,205)"/>
<path d="M0 0 C-5.34725999 2.84865318 -11.064073 4.85625332 -17.0625 3.125 C-18.031875 2.75375 -19.00125 2.3825 -20 2 C-20 1.67 -20 1.34 -20 1 C-13.02420757 -0.7958955 -7.11778518 -1.12067256 0 0 Z " fill="#3F4571" transform="translate(171,74)"/>
<path d="M0 0 C-0.33 0.99 -0.66 1.98 -1 3 C-1 2.34 -1 1.68 -1 1 C-3.66740923 1.11518358 -6.33347241 1.24189546 -9 1.375 C-9.74378906 1.4059375 -10.48757813 1.436875 -11.25390625 1.46875 C-17.00668066 1.76889475 -22.7763112 2.3881556 -28 5 C-27.67 3.35 -27.34 1.7 -27 0 C-23.06290089 -0.19665429 -19.12531328 -0.38075477 -15.1875 -0.5625 C-14.06794922 -0.61857422 -12.94839844 -0.67464844 -11.79492188 -0.73242188 C-10.72177734 -0.78076172 -9.64863281 -0.82910156 -8.54296875 -0.87890625 C-7.0583313 -0.94960327 -7.0583313 -0.94960327 -5.54370117 -1.02172852 C-3 -1 -3 -1 0 0 Z " fill="#252D51" transform="translate(525,160)"/>
<path d="M0 0 C0.99 0 1.98 0 3 0 C3 0.66 3 1.32 3 2 C4.32 2.33 5.64 2.66 7 3 C5.68 6.96 4.36 10.92 3 15 C0.82233925 10.64467851 0.96960445 9.53374042 2 5 C1.34 4.67 0.68 4.34 0 4 C0 2.68 0 1.36 0 0 Z " fill="#4E577C" transform="translate(47,255)"/>
<path d="M0 0 C2.10353495 -0.0810206 4.20795952 -0.13919907 6.3125 -0.1875 C7.48425781 -0.22230469 8.65601563 -0.25710937 9.86328125 -0.29296875 C13 0 13 0 14.90625 1.34375 C16.40545527 3.61397512 16.21562026 5.34068352 16 8 C15.34 8 14.68 8 14 8 C13.34 6.02 12.68 4.04 12 2 C10.9790625 2.2784375 10.9790625 2.2784375 9.9375 2.5625 C6.42767809 3.08523943 3.47811937 2.61378577 0 2 C0 1.34 0 0.68 0 0 Z " fill="#212C4C" transform="translate(460,159)"/>
<path d="M0 0 C1.98 0.99 1.98 0.99 4 2 C4 2.66 4 3.32 4 4 C8.62 4 13.24 4 18 4 C18.33 4.66 18.66 5.32 19 6 C16.02077407 6.02683987 13.04178705 6.04676037 10.0625 6.0625 C8.78729492 6.07506836 8.78729492 6.07506836 7.48632812 6.08789062 C6.67744141 6.09111328 5.86855469 6.09433594 5.03515625 6.09765625 C4.2862915 6.10289307 3.53742676 6.10812988 2.76586914 6.11352539 C1 6 1 6 0 5 C-0.04063832 3.33382885 -0.042721 1.66611905 0 0 Z " fill="#283056" transform="translate(329,231)"/>
<path d="M0 0 C0.33 0.66 0.66 1.32 1 2 C1.99 2.33 2.98 2.66 4 3 C3.01 3.33 2.02 3.66 1 4 C1.2784375 4.9590625 1.2784375 4.9590625 1.5625 5.9375 C2.15333516 10.07334611 1.58271759 13.8851173 1 18 C0.01 18 -0.98 18 -2 18 C-2.23268915 11.71739294 -1.40454548 6.11980533 0 0 Z " fill="#464F6A" transform="translate(372,249)"/>
<path d="M0 0 C1.44529722 2.89059444 0.45825823 4.50895973 -0.4375 7.5625 C-1.51533995 10.72656411 -1.51533995 10.72656411 -2 14 C-2.66 14.66 -3.32 15.32 -4 16 C-6.125 15.625 -6.125 15.625 -8 15 C-6.85657478 12.68628057 -5.71038936 10.37400323 -4.5625 8.0625 C-4.23701172 7.40314453 -3.91152344 6.74378906 -3.57617188 6.06445312 C-1.11328125 1.11328125 -1.11328125 1.11328125 0 0 Z " fill="#545B7D" transform="translate(70,205)"/>
<path d="M0 0 C2.48262432 2.48262432 3.07286975 4.61775287 4.1875 7.9375 C4.55230469 8.99839844 4.91710937 10.05929688 5.29296875 11.15234375 C6 14 6 14 5 17 C1.15412346 14.4360823 1.21008391 12.9281421 0.25 8.5 C-0.01296875 7.3346875 -0.2759375 6.169375 -0.546875 4.96875 C-1 2 -1 2 0 0 Z " fill="#626689" transform="translate(392,165)"/>
<path d="M0 0 C0.99 0.66 1.98 1.32 3 2 C2.34 5.3 1.68 8.6 1 12 C0.34 12 -0.32 12 -1 12 C-1 11.34 -1 10.68 -1 10 C-1.66 10 -2.32 10 -3 10 C-3 9.34 -3 8.68 -3 8 C-4.65 7.67 -6.3 7.34 -8 7 C-7.67 6.01 -7.34 5.02 -7 4 C-5.35 4 -3.7 4 -2 4 C-1.67 5.32 -1.34 6.64 -1 8 C-0.34 8 0.32 8 1 8 C0.67 5.36 0.34 2.72 0 0 Z " fill="#485579" transform="translate(46,269)"/>
<path d="M0 0 C1.32 0.33 2.64 0.66 4 1 C2.76600937 2.36877116 1.51219377 3.71969166 0.25 5.0625 C-0.44609375 5.81660156 -1.1421875 6.57070312 -1.859375 7.34765625 C-4 9 -4 9 -6.203125 8.87109375 C-8 8 -8 8 -9 6 C-8.43410156 5.73445312 -7.86820312 5.46890625 -7.28515625 5.1953125 C-6.55167969 4.84210938 -5.81820312 4.48890625 -5.0625 4.125 C-4.33160156 3.77695313 -3.60070312 3.42890625 -2.84765625 3.0703125 C-0.83667541 2.1315023 -0.83667541 2.1315023 0 0 Z " fill="#2A355B" transform="translate(124,125)"/>
<path d="M0 0 C1.22589844 0.01353516 1.22589844 0.01353516 2.4765625 0.02734375 C3.41628906 0.04474609 3.41628906 0.04474609 4.375 0.0625 C4.045 1.0525 3.715 2.0425 3.375 3.0625 C2.42625 3.000625 1.4775 2.93875 0.5 2.875 C-1.046875 2.9678125 -1.046875 2.9678125 -2.625 3.0625 C-3.615 4.5475 -3.615 4.5475 -4.625 6.0625 C-8.25 6.25 -8.25 6.25 -11.625 6.0625 C-5.63945087 -0.08056358 -5.63945087 -0.08056358 0 0 Z " fill="#515779" transform="translate(652.625,125.9375)"/>
<path d="M0 0 C2.125 0.375 2.125 0.375 4 1 C4 1.66 4 2.32 4 3 C3.34 3 2.68 3 2 3 C2 4.65 2 6.3 2 8 C-0.31 8 -2.62 8 -5 8 C-2.25 2.25 -2.25 2.25 0 0 Z " fill="#2B3466" transform="translate(58,230)"/>
<path d="M0 0 C0.66 0 1.32 0 2 0 C1.34 3.63 0.68 7.26 0 11 C-1.32 10.67 -2.64 10.34 -4 10 C-4.33 8.35 -4.66 6.7 -5 5 C-3.68 4.67 -2.36 4.34 -1 4 C-0.67 2.68 -0.34 1.36 0 0 Z " fill="#111949" transform="translate(408,201)"/>
<path d="M0 0 C0.66 0 1.32 0 2 0 C2.87042243 1.88842514 3.72075474 3.78611902 4.5625 5.6875 C5.03816406 6.74324219 5.51382813 7.79898438 6.00390625 8.88671875 C7.05322011 12.16633893 7.00418265 13.75895539 6 17 C4.47182713 14.03314185 3.13364127 11.02816356 1.875 7.9375 C1.52179687 7.08027344 1.16859375 6.22304687 0.8046875 5.33984375 C0 3 0 3 0 0 Z " fill="#414568" transform="translate(612,191)"/>
<path d="M0 0 C5 1 5 1 6.58203125 2.84765625 C6.98808594 3.57855469 7.39414062 4.30945313 7.8125 5.0625 C8.23144531 5.79597656 8.65039062 6.52945313 9.08203125 7.28515625 C9.38496094 7.85105469 9.68789063 8.41695312 10 9 C8.68 9.33 7.36 9.66 6 10 C4.02 6.7 2.04 3.4 0 0 Z " fill="#3F4969" transform="translate(294,186)"/>
<path d="M0 0 C0.33 0.66 0.66 1.32 1 2 C1.99 2 2.98 2 4 2 C4 2.66 4 3.32 4 4 C5.65 4.33 7.3 4.66 9 5 C9 5.66 9 6.32 9 7 C6.25 7.75 6.25 7.75 3 8 C0.5625 6.3125 0.5625 6.3125 -1 4 C-0.75 1.75 -0.75 1.75 0 0 Z " fill="#212C5A" transform="translate(33,221)"/>
<path d="M0 0 C1.32 0 2.64 0 4 0 C4 3.63 4 7.26 4 11 C3.01 10.67 2.02 10.34 1 10 C0.234375 7.96875 0.234375 7.96875 -0.25 5.5 C-0.42015625 4.6853125 -0.5903125 3.870625 -0.765625 3.03125 C-0.84296875 2.3609375 -0.9203125 1.690625 -1 1 C-0.67 0.67 -0.34 0.34 0 0 Z " fill="#15224F" transform="translate(584,178)"/>
<path d="M0 0 C6.93 0 13.86 0 21 0 C21 0.33 21 0.66 21 1 C18.54203147 1.19436491 16.08390706 1.3807742 13.625 1.5625 C12.92632813 1.61857422 12.22765625 1.67464844 11.5078125 1.73242188 C6.2265625 2.11328125 6.2265625 2.11328125 4 1 C3.34 2.98 2.68 4.96 2 7 C1.34 6.34 0.68 5.68 0 5 C0 3.33333333 0 1.66666667 0 0 Z " fill="#162352" transform="translate(563,136)"/>
<path d="M0 0 C1.97986082 0.11347619 3.95891598 0.2410935 5.9375 0.375 C7.03964844 0.44460937 8.14179688 0.51421875 9.27734375 0.5859375 C10.62505859 0.79089844 10.62505859 0.79089844 12 1 C12.33 1.66 12.66 2.32 13 3 C9.7 3 6.4 3 3 3 C3 3.66 3 4.32 3 5 C1.68 4.67 0.36 4.34 -1 4 C-0.67 2.68 -0.34 1.36 0 0 Z " fill="#2E3862" transform="translate(446,232)"/>
<path d="M0 0 C0.66 0 1.32 0 2 0 C0.58795406 5.26308032 -1.68991307 8.7562988 -5 13 C-5.33 13 -5.66 13 -6 13 C-5.63258872 6.87647862 -4.21348564 4.21348564 0 0 Z " fill="#1C254C" transform="translate(465,206)"/>
<path d="M0 0 C4.87685861 1.35468295 6.48592381 3.71675909 9 8 C7.68 8.99 6.36 9.98 5 11 C4.34 10.34 3.68 9.68 3 9 C3 8.34 3 7.68 3 7 C2.505 6.175 2.01 5.35 1.5 4.5 C0 2 0 2 0 0 Z " fill="#1A2359" transform="translate(286,139)"/>
<path d="M0 0 C0.33 0 0.66 0 1 0 C1 2.31 1 4.62 1 7 C1.99 6.67 2.98 6.34 4 6 C4.33 6.99 4.66 7.98 5 9 C6.98 9 8.96 9 11 9 C11 9.33 11 9.66 11 10 C7.37 10 3.74 10 0 10 C-2 6 -2 6 -1.125 2.75 C-0.75375 1.8425 -0.3825 0.935 0 0 Z " fill="#333A5D" transform="translate(640,227)"/>
<path d="M0 0 C0.99 0.33 1.98 0.66 3 1 C3 1.99 3 2.98 3 4 C3.639375 4.185625 4.27875 4.37125 4.9375 4.5625 C7 6 7 6 7.75 9.625 C7.8325 10.73875 7.915 11.8525 8 13 C7.01 12.34 6.02 11.68 5 11 C5 10.01 5 9.02 5 8 C4.34 8 3.68 8 3 8 C0.95830515 5.09451118 0 3.59857954 0 0 Z " fill="#3F4969" transform="translate(487,217)"/>
<path d="M0 0 C2 2 2 2 2.1953125 4.1640625 C2.17210937 4.97617188 2.14890625 5.78828125 2.125 6.625 C2.10695313 7.44226563 2.08890625 8.25953125 2.0703125 9.1015625 C2.03550781 10.04128906 2.03550781 10.04128906 2 11 C0.68 11.33 -0.64 11.66 -2 12 C-3.12377697 8.69564916 -2.89554742 6.9493138 -1.5625 3.75 C-1.27503906 3.04359375 -0.98757813 2.3371875 -0.69140625 1.609375 C-0.46324219 1.07828125 -0.23507812 0.5471875 0 0 Z " fill="#3A4367" transform="translate(541,190)"/>
<path d="M0 0 C0.66 1.32 1.32 2.64 2 4 C-0.64 6.97 -3.28 9.94 -6 13 C-6.66 12.67 -7.32 12.34 -8 12 C-5.36 8.04 -2.72 4.08 0 0 Z " fill="#575C79" transform="translate(86,178)"/>
<path d="M0 0 C0.66 0.33 1.32 0.66 2 1 C1.04956626 2.33897583 0.08940853 3.67105427 -0.875 5 C-1.40867188 5.7425 -1.94234375 6.485 -2.4921875 7.25 C-2.98976562 7.8275 -3.48734375 8.405 -4 9 C-4.66 9 -5.32 9 -6 9 C-6 9.66 -6 10.32 -6 11 C-6.99 10.67 -7.98 10.34 -9 10 C-9 9.34 -9 8.68 -9 8 C-8.01 7.67 -7.02 7.34 -6 7 C-4.83333333 5.08333333 -4.83333333 5.08333333 -4 3 C-3 1 -3 1 0 0 Z " fill="#404A6B" transform="translate(141,177)"/>
<path d="M0 0 C0.99773437 0.02320313 1.99546875 0.04640625 3.0234375 0.0703125 C4.52777344 0.09738281 4.52777344 0.09738281 6.0625 0.125 C6.83335938 0.14820313 7.60421875 0.17140625 8.3984375 0.1953125 C8.7284375 1.8453125 9.0584375 3.4953125 9.3984375 5.1953125 C8.4084375 5.8553125 7.4184375 6.5153125 6.3984375 7.1953125 C6.3984375 5.8753125 6.3984375 4.5553125 6.3984375 3.1953125 C2.7684375 2.8653125 -0.8615625 2.5353125 -4.6015625 2.1953125 C-2.6015625 0.1953125 -2.6015625 0.1953125 0 0 Z " fill="#757E93" transform="translate(86.6015625,227.8046875)"/>
<path d="M0 0 C2.28814723 2.28814723 2.75451161 3.80751622 3.6875 6.875 C3.95949219 7.73867187 4.23148438 8.60234375 4.51171875 9.4921875 C5.01692938 12.08694932 4.85561171 13.530785 4 16 C2 15 2 15 1.3671875 13.14453125 C0.4259852 8.68502511 -0.23530026 4.58835504 0 0 Z " fill="#2D3964" transform="translate(599,156)"/>
<path d="M0 0 C0.9590625 0.10957031 1.918125 0.21914062 2.90625 0.33203125 C4.34484375 0.47705078 4.34484375 0.47705078 5.8125 0.625 C8.40625 1.14453125 8.40625 1.14453125 11.40625 3.14453125 C5.79625 3.14453125 0.18625 3.14453125 -5.59375 3.14453125 C-2.59375 0.14453125 -2.59375 0.14453125 0 0 Z " fill="#121D51" transform="translate(268.59375,134.85546875)"/>
<path d="M0 0 C4.24480464 -0.33292585 6.35542625 -0.43885872 9.9375 2 C10.618125 2.66 11.29875 3.32 12 4 C11.34 4.66 10.68 5.32 10 6 C7.9375 5.8125 7.9375 5.8125 6 5 C5.67 4.01 5.34 3.02 5 2 C3.35 1.67 1.7 1.34 0 1 C0 0.67 0 0.34 0 0 Z " fill="#444E6F" transform="translate(36,244)"/>
<path d="M0 0 C0.66 0.33 1.32 0.66 2 1 C2.625 4.0625 2.625 4.0625 3 7 C3.66 7 4.32 7 5 7 C5 8.98 5 10.96 5 13 C4.01 13.495 4.01 13.495 3 14 C2.303447 12.04486839 1.61800435 10.08577524 0.9375 8.125 C0.55464844 7.03445312 0.17179688 5.94390625 -0.22265625 4.8203125 C-1 2 -1 2 0 0 Z " fill="#172447" transform="translate(579,164)"/>
<path d="M0 0 C0.99 0 1.98 0 3 0 C2.34 2.31 1.68 4.62 1 7 C0.071875 7.12375 0.071875 7.12375 -0.875 7.25 C-3.18437567 7.81258459 -3.18437567 7.81258459 -4.25 10.0625 C-4.4975 10.701875 -4.745 11.34125 -5 12 C-5.33 11.34 -5.66 10.68 -6 10 C-4.15885893 6.50818073 -2.18840439 3.28260659 0 0 Z " fill="#444C71" transform="translate(494,166)"/>
<path d="M0 0 C1.9814066 2.9721099 2.7434556 4.49389321 3 8 C1.6875 10.3125 1.6875 10.3125 0 12 C-0.66 12 -1.32 12 -2 12 C-2.21278058 7.53160785 -1.59138085 4.17737474 0 0 Z " fill="#202A54" transform="translate(421,161)"/>
<path d="M0 0 C0.99 0 1.98 0 3 0 C3 1.65 3 3.3 3 5 C-1.19469571 4.40075776 -5.00999834 3.42500059 -9 2 C-9 1.67 -9 1.34 -9 1 C-6.03 1 -3.06 1 0 1 C0 0.67 0 0.34 0 0 Z " fill="#5B5E79" transform="translate(70,253)"/>
<path d="M0 0 C0.33 0 0.66 0 1 0 C1 2.97 1 5.94 1 9 C0.67 9 0.34 9 0 9 C-0.33 10.65 -0.66 12.3 -1 14 C-1.33 14 -1.66 14 -2 14 C-2.22245393 12.39773045 -2.42746669 10.79303233 -2.625 9.1875 C-2.74101562 8.29417969 -2.85703125 7.40085938 -2.9765625 6.48046875 C-3 4 -3 4 -1 1 C-0.67 0.67 -0.34 0.34 0 0 Z " fill="#0F426D" transform="translate(263,184)"/>
<path d="M0 0 C0.66 0 1.32 0 2 0 C2 0.66 2 1.32 2 2 C2.66 2 3.32 2 4 2 C4.12375 2.639375 4.2475 3.27875 4.375 3.9375 C4.684375 4.9584375 4.684375 4.9584375 5 6 C5.66 6.33 6.32 6.66 7 7 C6.34 7.66 5.68 8.32 5 9 C4.01 9 3.02 9 2 9 C0.50178941 5.62902617 0 3.79557881 0 0 Z " fill="#384164" transform="translate(49,183)"/>
<path d="M0 0 C1.9375 0.5625 1.9375 0.5625 4 2 C4.75 5.625 4.75 5.625 5 9 C4.67 8.34 4.34 7.68 4 7 C3.34 6.67 2.68 6.34 2 6 C1.67 5.34 1.34 4.68 1 4 C-0.65 4.66 -2.3 5.32 -4 6 C-2.84826645 3.53199953 -1.95216435 1.95216435 0 0 Z " fill="#555B78" transform="translate(68,135)"/>
<path d="M0 0 C1 2 2 4 3 6 C2.67 6.66 2.34 7.32 2 8 C0.02 7.34 -1.96 6.68 -4 6 C-2.25 1.125 -2.25 1.125 0 0 Z " fill="#18235B" transform="translate(93,108)"/>
<path d="M0 0 C-0.33 0.99 -0.66 1.98 -1 3 C-4.63 3 -8.26 3 -12 3 C-12.33 2.34 -12.66 1.68 -13 1 C-11.39796533 0.63631108 -9.79325797 0.28438048 -8.1875 -0.0625 C-7.29417969 -0.25972656 -6.40085937 -0.45695313 -5.48046875 -0.66015625 C-3 -1 -3 -1 0 0 Z " fill="#0F1633" transform="translate(517,235)"/>
<path d="M0 0 C0.33 0.66 0.66 1.32 1 2 C0.07137808 4.03412421 -0.93753473 6.03247172 -2 8 C-2.391875 8.78375 -2.78375 9.5675 -3.1875 10.375 C-3.455625 10.91125 -3.72375 11.4475 -4 12 C-4.99 12 -5.98 12 -7 12 C-7.66 11.01 -8.32 10.02 -9 9 C-6.525 9.495 -6.525 9.495 -4 10 C-3.8453125 8.9171875 -3.8453125 8.9171875 -3.6875 7.8125 C-2.94013068 4.75508007 -1.71954811 2.61670365 0 0 Z " fill="#171F4A" transform="translate(492,172)"/>
<path d="M0 0 C1.1171875 1.671875 1.1171875 1.671875 2 4 C1.3203125 6.578125 1.3203125 6.578125 0.125 9.25 C-0.26429688 10.14203125 -0.65359375 11.0340625 -1.0546875 11.953125 C-1.36664063 12.62859375 -1.67859375 13.3040625 -2 14 C-2.33 14 -2.66 14 -3 14 C-3 11.03 -3 8.06 -3 5 C-2.34 5 -1.68 5 -1 5 C-0.67 3.35 -0.34 1.7 0 0 Z " fill="#525878" transform="translate(444,167)"/>
<path d="M0 0 C2.0625 0.4375 2.0625 0.4375 4 1 C3.01 2.485 3.01 2.485 2 4 C2 5.32 2 6.64 2 8 C1.34 8 0.68 8 0 8 C-0.66 9.32 -1.32 10.64 -2 12 C-1.85962479 10.18706911 -1.71255111 8.3746557 -1.5625 6.5625 C-1.48128906 5.55316406 -1.40007812 4.54382813 -1.31640625 3.50390625 C-1 1 -1 1 0 0 Z " fill="#3B486E" transform="translate(262,134)"/>
<path d="M0 0 C0.66 0 1.32 0 2 0 C2 2.97 2 5.94 2 9 C0.02 9.99 0.02 9.99 -2 11 C-1.85957123 9.35369672 -1.71250671 7.70795821 -1.5625 6.0625 C-1.48128906 5.14597656 -1.40007812 4.22945312 -1.31640625 3.28515625 C-1 1 -1 1 0 0 Z " fill="#212B50" transform="translate(393,233)"/>
<path d="M0 0 C1.9375 0.625 1.9375 0.625 4 2 C4.75 5.125 4.75 5.125 5 8 C5.66 8 6.32 8 7 8 C6.67 9.32 6.34 10.64 6 12 C3.69 8.7 1.38 5.4 -1 2 C-0.67 1.34 -0.34 0.68 0 0 Z " fill="#525B79" transform="translate(32,225)"/>
<path d="M0 0 C0.66 0 1.32 0 2 0 C2.22331199 1.58129029 2.42804644 3.16521089 2.625 4.75 C2.74101562 5.63171875 2.85703125 6.5134375 2.9765625 7.421875 C3.00207817 10.22859878 2.44843844 11.63384866 1 14 C0 13 0 13 -0.09765625 10.05859375 C-0.08605469 8.86363281 -0.07445312 7.66867188 -0.0625 6.4375 C-0.05347656 5.23996094 -0.04445313 4.04242188 -0.03515625 2.80859375 C-0.02355469 1.88175781 -0.01195312 0.95492187 0 0 Z " fill="#384067" transform="translate(261,204)"/>
<path d="M0 0 C0.33 0 0.66 0 1 0 C1.92470553 4.71599818 2.22923777 7.67265609 0 12 C-0.66 11.67 -1.32 11.34 -2 11 C-2 8.36 -2 5.72 -2 3 C-1.34 3 -0.68 3 0 3 C0 2.01 0 1.02 0 0 Z " fill="#101964" transform="translate(139,90)"/>
<path d="M0 0 C0.99 0.33 1.98 0.66 3 1 C-0.625 6.75 -0.625 6.75 -4 9 C-4 7.35 -4 5.7 -4 4 C-2.68 3.34 -1.36 2.68 0 2 C0 1.34 0 0.68 0 0 Z " fill="#40456E" transform="translate(89,167)"/>
<path d="M0 0 C0.598125 0.20625 1.19625 0.4125 1.8125 0.625 C1.1875 2.5 1.1875 2.5 -0.1875 4.625 C-3.3125 5.875 -3.3125 5.875 -6.1875 6.625 C-5.875 4.25 -5.875 4.25 -5.1875 1.625 C-2.1875 -0.375 -2.1875 -0.375 0 0 Z " fill="#0C1551" transform="translate(144.1875,110.375)"/>
<path d="M0 0 C0.93065133 2.60582371 1.14917407 3.64198224 0.0625 6.25 C-0.4634375 7.11625 -0.4634375 7.11625 -1 8 C-2.32 7.67 -3.64 7.34 -5 7 C-2.25 1.125 -2.25 1.125 0 0 Z " fill="#161F4A" transform="translate(413,247)"/>
<path d="M0 0 C0.78375 0.825 1.5675 1.65 2.375 2.5 C4.63721264 5.22988506 4.63721264 5.22988506 7 5 C7 5.99 7 6.98 7 8 C3.56072421 6.7580393 0.74792181 5.44259716 -2 3 C-2 2.34 -2 1.68 -2 1 C-1.34 0.67 -0.68 0.34 0 0 Z " fill="#212F5B" transform="translate(41,239)"/>
<path d="M0 0 C0.4125 0.556875 0.825 1.11375 1.25 1.6875 C3.12256399 4.16195956 5.05339344 6.5835229 7 9 C5.02 9.99 5.02 9.99 3 11 C2.34 10.34 1.68 9.68 1 9 C1 8.34 1 7.68 1 7 C0.67794257 4.66508361 0.34541851 2.33157492 0 0 Z " fill="#4E5B77" transform="translate(47,189)"/>
<path d="M0 0 C1.98 0.495 1.98 0.495 4 1 C3.67 2.98 3.34 4.96 3 7 C1.68 7.33 0.36 7.66 -1 8 C-0.67 5.36 -0.34 2.72 0 0 Z " fill="#273056" transform="translate(547,175)"/>
<path d="M0 0 C0.99 0.33 1.98 0.66 3 1 C3 1.66 3 2.32 3 3 C3.66 3 4.32 3 5 3 C5.33 6.3 5.66 9.6 6 13 C4.1727089 10.25906335 3.06301822 7.86174676 1.875 4.8125 C1.52179688 3.91144531 1.16859375 3.01039063 0.8046875 2.08203125 C0.53914063 1.39496094 0.27359375 0.70789063 0 0 Z " fill="#565E7A" transform="translate(364,163)"/>
<path d="M0 0 C0.66 0.99 1.32 1.98 2 3 C0.35 5.31 -1.3 7.62 -3 10 C-3.33 9.34 -3.66 8.68 -4 8 C-4.66 7.67 -5.32 7.34 -6 7 C-4.02 4.69 -2.04 2.38 0 0 Z " fill="#404670" transform="translate(96,157)"/>
<path d="M0 0 C2.12046792 3.53411321 2.53199289 6.94393835 3 11 C2.01 11 1.02 11 0 11 C-0.66 8.69 -1.32 6.38 -2 4 C-1.34 4 -0.68 4 0 4 C0 2.68 0 1.36 0 0 Z " fill="#152353" transform="translate(81,155)"/>
<path d="M0 0 C1.79237442 2.68856164 2.98446183 4.9533855 4 8 C3.67 8.66 3.34 9.32 3 10 C-1.455 9.01 -1.455 9.01 -6 8 C-6 7.67 -6 7.34 -6 7 C-4.02 7 -2.04 7 0 7 C0 4.69 0 2.38 0 0 Z " fill="#4F5579" transform="translate(628,227)"/>
<path d="M0 0 C1.5625 1.75 1.5625 1.75 3 4 C2.6875 6.25 2.6875 6.25 2 8 C1.01 8 0.02 8 -1 8 C-1.625 5.125 -1.625 5.125 -2 2 C-1.34 1.34 -0.68 0.68 0 0 Z " fill="#18244F" transform="translate(603,224)"/>
<path d="M0 0 C0.45375 0.639375 0.9075 1.27875 1.375 1.9375 C2.83921726 4.09702406 2.83921726 4.09702406 5 5 C3.515 7.475 3.515 7.475 2 10 C1.34 9.01 0.68 8.02 0 7 C-0.66 6.67 -1.32 6.34 -2 6 C-1.34 4.02 -0.68 2.04 0 0 Z " fill="#3A4276" transform="translate(410,194)"/>
<path d="M0 0 C0.66 0 1.32 0 2 0 C5 5.625 5 5.625 5 9 C4.01 9 3.02 9 2 9 C1.814375 8.071875 1.814375 8.071875 1.625 7.125 C1.12802644 4.80879168 1.12802644 4.80879168 -1 3 C-0.67 2.01 -0.34 1.02 0 0 Z " fill="#1E264D" transform="translate(477,167)"/>
<path d="M0 0 C4.95 0 9.9 0 15 0 C15 0.99 15 1.98 15 3 C13.68 2.67 12.36 2.34 11 2 C10.67 2.66 10.34 3.32 10 4 C9.34 3.34 8.68 2.68 8 2 C5.34462628 1.43479997 2.70855287 1.26211802 0 1 C0 0.67 0 0.34 0 0 Z " fill="#1A2757" transform="translate(432,161)"/>
<path d="M0 0 C0.66 0.33 1.32 0.66 2 1 C0.50902342 4.7952131 -1.75700849 6.61042731 -5 9 C-4.5206753 4.68607774 -3.2542015 2.83430453 0 0 Z " fill="#33375C" transform="translate(122,133)"/>
<path d="M0 0 C0.66 0.99 1.32 1.98 2 3 C-0.55068845 5.35448165 -1.71017358 5.98327924 -5.25 6.1875 C-6.1575 6.125625 -7.065 6.06375 -8 6 C-5.38485683 3.87961365 -2.80362384 1.86908256 0 0 Z " fill="#353D61" transform="translate(119,88)"/>
<path d="M0 0 C2 1 2 1 4 4 C4.99 4.66 5.98 5.32 7 6 C6.67 7.32 6.34 8.64 6 10 C1.77202073 6.91709845 1.77202073 6.91709845 0 5 C-0.375 2.1875 -0.375 2.1875 0 0 Z " fill="#1B264F" transform="translate(514,220)"/>
<path d="M0 0 C2.92965912 2.92965912 3.94133569 5.680053 4.125 9.8125 C4.08375 10.534375 4.0425 11.25625 4 12 C2.29159719 10.36587557 1.06546953 9.13093906 0 7 C-0.04022391 4.6670134 -0.04320247 2.33293334 0 0 Z " fill="#3C436B" transform="translate(604,169)"/>
<path d="M0 0 C0.66 1.32 1.32 2.64 2 4 C-0.1385485 6.1385485 -1.13275314 6.42655063 -4 7 C-4 7.66 -4 8.32 -4 9 C-4.66 8.67 -5.32 8.34 -6 8 C-4.02 5.36 -2.04 2.72 0 0 Z " fill="#31376D" transform="translate(101,158)"/>
<path d="M0 0 C0.99 0 1.98 0 3 0 C3 3.3 3 6.6 3 10 C2.01 9.67 1.02 9.34 0 9 C-0.8125 7.125 -0.8125 7.125 -1 5 C-0.34 4.01 0.32 3.02 1 2 C0.67 1.34 0.34 0.68 0 0 Z " fill="#172351" transform="translate(54,195)"/>
<path d="M0 0 C0.66 1.32 1.32 2.64 2 4 C1.01 4.33 0.02 4.66 -1 5 C-3.16343011 7.03268602 -3.16343011 7.03268602 -5 10 C-6 7 -6 7 -5 4 C-3.37667033 2.61423077 -1.71275535 1.27358732 0 0 Z " fill="#1D2754" transform="translate(83,187)"/>
<path d="M0 0 C0.33 0 0.66 0 1 0 C1.33 4.29 1.66 8.58 2 13 C1.34 13 0.68 13 0 13 C-0.33 14.65 -0.66 16.3 -1 18 C-2.62283808 14.75432383 -1.54725234 11.36160376 -1.0625 7.875 C-0.91264648 6.74384766 -0.91264648 6.74384766 -0.75976562 5.58984375 C-0.51201596 3.72582247 -0.25671943 1.86280712 0 0 Z " fill="#263765" transform="translate(262,160)"/>
<path d="M0 0 C0.66 0 1.32 0 2 0 C2 0.66 2 1.32 2 2 C2.66 2.33 3.32 2.66 4 3 C-5.41002278 4.33257403 -5.41002278 4.33257403 -10 3 C-10 2.67 -10 2.34 -10 2 C-9.04287109 1.90912109 -9.04287109 1.90912109 -8.06640625 1.81640625 C-6.82697266 1.69072266 -6.82697266 1.69072266 -5.5625 1.5625 C-4.73878906 1.48128906 -3.91507813 1.40007812 -3.06640625 1.31640625 C-1.01337975 1.21069185 -1.01337975 1.21069185 0 0 Z " fill="#19254D" transform="translate(149,139)"/>
<path d="M0 0 C2.9375 1.25 2.9375 1.25 6 3 C6.875 5.1875 6.875 5.1875 7 7 C4.69 6.01 2.38 5.02 0 4 C0 2.68 0 1.36 0 0 Z " fill="#2F3F69" transform="translate(37,284)"/>
<path d="M0 0 C0.33 0 0.66 0 1 0 C1.1953125 6.0546875 1.1953125 6.0546875 1 8 C0.34 8.66 -0.32 9.32 -1 10 C-1.69748583 11.31747324 -2.36959957 12.64914193 -3 14 C-2.48594831 9.03083364 -1.76615118 4.70973649 0 0 Z " fill="#404581" transform="translate(37,276)"/>
<path d="M0 0 C0.99 0.33 1.98 0.66 3 1 C2.01 2.98 1.02 4.96 0 7 C-0.99 7 -1.98 7 -3 7 C-3.33 6.01 -3.66 5.02 -4 4 C-2.68 2.68 -1.36 1.36 0 0 Z " fill="#1B2856" transform="translate(137,111)"/>
<path d="M0 0 C0.33 0.66 0.66 1.32 1 2 C-0.28745036 2.38922918 -1.58019597 2.76098036 -2.875 3.125 C-3.95394531 3.43824219 -3.95394531 3.43824219 -5.0546875 3.7578125 C-5.69664062 3.83773438 -6.33859375 3.91765625 -7 4 C-7.66 3.34 -8.32 2.68 -9 2 C-3.375 -1.125 -3.375 -1.125 0 0 Z " fill="#525D78" transform="translate(399,265)"/>
<path d="M0 0 C1.9375 1.125 1.9375 1.125 4 3 C4.75 6.1875 4.75 6.1875 5 9 C2.5 6.75 2.5 6.75 0 4 C0 2.68 0 1.36 0 0 Z " fill="#49506F" transform="translate(310,206)"/>
<path d="M0 0 C2.66735273 2.48952921 4.55746343 4.63408134 6 8 C4.35 7.67 2.7 7.34 1 7 C0.67 4.69 0.34 2.38 0 0 Z " fill="#2F375D" transform="translate(298,152)"/>
<path d="M0 0 C3.465 1.485 3.465 1.485 7 3 C7 3.66 7 4.32 7 5 C5.02 5 3.04 5 1 5 C0.67 3.35 0.34 1.7 0 0 Z " fill="#29345A" transform="translate(497,232)"/>
<path d="M0 0 C0.66 0 1.32 0 2 0 C2.20140476 3.62528568 1.85776765 5.86501708 0 9 C-0.66 9 -1.32 9 -2 9 C-1.125 1.125 -1.125 1.125 0 0 Z " fill="#141D48" transform="translate(551,227)"/>
<path d="M0 0 C2 1.5625 2 1.5625 4 4 C4.25 7.75 4.25 7.75 4 11 C1.55160412 7.32740617 0 4.45351799 0 0 Z " fill="#485378" transform="translate(597,218)"/>
<path d="M0 0 C0.66 0 1.32 0 2 0 C1.45773019 3.79588866 -0.20127563 5.47211993 -3 8 C-3.99 7.67 -4.98 7.34 -6 7 C-5.34 7 -4.68 7 -4 7 C-3.71125 6.195625 -3.4225 5.39125 -3.125 4.5625 C-2 2 -2 2 0 1 C0 0.67 0 0.34 0 0 Z " fill="#162249" transform="translate(111,211)"/>
<path d="M0 0 C2.96052484 3.36423277 3.92289822 6.69159287 5 11 C4.01 10.34 3.02 9.68 2 9 C2.33 8.34 2.66 7.68 3 7 C2.01 6.67 1.02 6.34 0 6 C0 4.02 0 2.04 0 0 Z " fill="#667193" transform="translate(619,206)"/>
<path d="M0 0 C-1.98 2.97 -1.98 2.97 -4 6 C-6 2.25 -6 2.25 -6 0 C-3 -1 -3 -1 0 0 Z " fill="#4A577A" transform="translate(516,178)"/>
<path d="M0 0 C0.99 0.33 1.98 0.66 3 1 C3.33 2.98 3.66 4.96 4 7 C3.01 7 2.02 7 1 7 C0.67 4.69 0.34 2.38 0 0 Z " fill="#202951" transform="translate(307,166)"/>
<path d="M0 0 C1.98 0 3.96 0 6 0 C6 0.66 6 1.32 6 2 C6.66 2.33 7.32 2.66 8 3 C5.36 3 2.72 3 0 3 C0 2.01 0 1.02 0 0 Z " fill="#14234A" transform="translate(423,159)"/>
<path d="M0 0 C0.66 0.33 1.32 0.66 2 1 C1.67 1.66 1.34 2.32 1 3 C1.66 3 2.32 3 3 3 C3.33 4.65 3.66 6.3 4 8 C0.125 6.125 0.125 6.125 -1 5 C-1.36162029 3.67405895 -1.69728039 2.34061543 -2 1 C-1.34 0.67 -0.68 0.34 0 0 Z " fill="#0E1847" transform="translate(76,148)"/>
<path d="M0 0 C0.33 0.99 0.66 1.98 1 3 C-3.05431692 4.15837626 -5.21812119 3.83691257 -9 2 C-9 1.67 -9 1.34 -9 1 C-5.846632 0.29925156 -3.27275026 0 0 0 Z " fill="#5C6183" transform="translate(160,74)"/>
<path d="M0 0 C4.39158329 1.4638611 4.87947433 3.97831338 7 8 C6.01 8 5.02 8 4 8 C3.67 7.01 3.34 6.02 3 5 C2.01 4.34 1.02 3.68 0 3 C0 2.01 0 1.02 0 0 Z " fill="#464F6B" transform="translate(512,216)"/>
<path d="M0 0 C0.66 0 1.32 0 2 0 C2 1.98 2 3.96 2 6 C1.34 6 0.68 6 0 6 C-0.33 6.99 -0.66 7.98 -1 9 C-2.25541557 5.23375329 -1.37061958 3.62811066 0 0 Z " fill="#172351" transform="translate(427,205)"/>
<path d="M0 0 C0.45375 0.495 0.9075 0.99 1.375 1.5 C2.87635519 3.22609337 2.87635519 3.22609337 5 3 C5.33 3.99 5.66 4.98 6 6 C3.03 5.505 3.03 5.505 0 5 C-0.33 4.01 -0.66 3.02 -1 2 C-0.67 1.34 -0.34 0.68 0 0 Z " fill="#314571" transform="translate(553,161)"/>
<path d="M0 0 C0.66 0.33 1.32 0.66 2 1 C1.01 3.31 0.02 5.62 -1 8 C-3 6.625 -3 6.625 -5 5 C-5 4.34 -5 3.68 -5 3 C-4.01 2.67 -3.02 2.34 -2 2 C-1.67 1.67 -1.34 1.34 -1 1 C-0.67 0.67 -0.34 0.34 0 0 Z " fill="#3F4A70" transform="translate(448,160)"/>
<path d="M0 0 C-2.76223278 2.76223278 -5.20706617 2.57856291 -9 3 C-8.67 2.01 -8.34 1.02 -8 0 C-5.04215769 -1.22393475 -3.00272755 -0.96516243 0 0 Z " fill="#5F6581" transform="translate(660,152)"/>
<path d="M0 0 C0.33 0.66 0.66 1.32 1 2 C2.65 2 4.3 2 6 2 C6.33 2.66 6.66 3.32 7 4 C5.35 4.66 3.7 5.32 2 6 C1.34 5.34 0.68 4.68 0 4 C0 2.68 0 1.36 0 0 Z " fill="#48517A" transform="translate(152,138)"/>
<path d="M0 0 C1.37562854 1.28965176 2.70766393 2.62689293 4 4 C4 4.66 4 5.32 4 6 C2.35 6.33 0.7 6.66 -1 7 C-0.67 4.69 -0.34 2.38 0 0 Z " fill="#303969" transform="translate(40,267)"/>
<path d="M0 0 C0.66 0 1.32 0 2 0 C1.45276317 3.37462715 0.9451 5.08235 -1 8 C-1.625 5.6875 -1.625 5.6875 -2 3 C-1.34 2.01 -0.68 1.02 0 0 Z " fill="#313A5B" transform="translate(416,239)"/>
<path d="M0 0 C0.66 0.33 1.32 0.66 2 1 C2 1.99 2 2.98 2 4 C-1 6 -1 6 -3.1875 5.625 C-3.785625 5.41875 -4.38375 5.2125 -5 5 C-3.35 3.35 -1.7 1.7 0 0 Z " fill="#384064" transform="translate(91,232)"/>
<path d="M0 0 C0.91058531 3.07322544 1.08886184 5.80097361 1 9 C0.01 9 -0.98 9 -2 9 C-2.33 8.34 -2.66 7.68 -3 7 C-2.06421005 4.64018187 -1.06652192 2.30368736 0 0 Z " fill="#505E8B" transform="translate(537,200)"/>
<path d="M0 0 C0.66 0 1.32 0 2 0 C2.33 0.99 2.66 1.98 3 3 C0.03 5.475 0.03 5.475 -3 8 C-3 7.01 -3 6.02 -3 5 C-2.34 5 -1.68 5 -1 5 C-0.67 3.35 -0.34 1.7 0 0 Z " fill="#485779" transform="translate(116,205)"/>
<path d="M0 0 C0.33 0 0.66 0 1 0 C1.19477739 1.62414378 1.38059458 3.24936423 1.5625 4.875 C1.66691406 5.77992188 1.77132813 6.68484375 1.87890625 7.6171875 C2 10 2 10 1 12 C0.34 12 -0.32 12 -1 12 C-0.67 8.04 -0.34 4.08 0 0 Z " fill="#111C4E" transform="translate(262,192)"/>
<path d="M0 0 C0.99 0.33 1.98 0.66 3 1 C2.34 3.97 1.68 6.94 1 10 C0.34 8.68 -0.32 7.36 -1 6 C-0.34 6 0.32 6 1 6 C0.67 4.02 0.34 2.04 0 0 Z " fill="#60658E" transform="translate(570,176)"/>
<path d="M0 0 C2.97 0.33 5.94 0.66 9 1 C8.34 1.66 7.68 2.32 7 3 C3.375 2.625 3.375 2.625 0 2 C0 1.34 0 0.68 0 0 Z " fill="#14204F" transform="translate(132,170)"/>
<path d="M0 0 C1.98 0.495 1.98 0.495 4 1 C4 2.65 4 4.3 4 6 C3.01 6.495 3.01 6.495 2 7 C0.4375 4.625 0.4375 4.625 -1 2 C-0.67 1.34 -0.34 0.68 0 0 Z " fill="#373E71" transform="translate(659,145)"/>
<path d="M0 0 C0.66 0.99 1.32 1.98 2 3 C0.7934375 3.433125 0.7934375 3.433125 -0.4375 3.875 C-3.1326468 4.73262568 -3.1326468 4.73262568 -4 7 C-4.66 6.67 -5.32 6.34 -6 6 C-4.95125002 3.37812506 -4.35068687 2.20628639 -1.875 0.75 C-1.25625 0.5025 -0.6375 0.255 0 0 Z " fill="#1C2555" transform="translate(69,138)"/>
<path d="M0 0 C1 3 1 3 0.0625 5.1875 C-0.4634375 6.0846875 -0.4634375 6.0846875 -1 7 C-2.32 6.67 -3.64 6.34 -5 6 C-3.35 4.02 -1.7 2.04 0 0 Z " fill="#444B6C" transform="translate(128,126)"/>
<path d="M0 0 C0 0.99 0 1.98 0 3 C-2.375 4.75 -2.375 4.75 -5 6 C-5.66 5.67 -6.32 5.34 -7 5 C-4.63707344 2.47411298 -3.33537489 1.11179163 0 0 Z " fill="#1E2550" transform="translate(138,120)"/>
<path d="M0 0 C-6.28571429 2.42857143 -6.28571429 2.42857143 -10 1 C-6.54366026 -2.45633974 -4.11562231 -2.49877069 0 0 Z " fill="#545B72" transform="translate(81,243)"/>
<path d="M0 0 C0.66 0.99 1.32 1.98 2 3 C1.67 3.66 1.34 4.32 1 5 C0.34 5 -0.32 5 -1 5 C-1 5.66 -1 6.32 -1 7 C-1.99 6.67 -2.98 6.34 -4 6 C-2.68 4.02 -1.36 2.04 0 0 Z " fill="#18234A" transform="translate(421,226)"/>
<path d="M0 0 C0.68707555 2.49064888 1 4.37886292 1 7 C-0.32 6.34 -1.64 5.68 -3 5 C-2.625 3.0625 -2.625 3.0625 -2 1 C-1.34 0.67 -0.68 0.34 0 0 Z " fill="#1C2B53" transform="translate(62,223)"/>
<path d="M0 0 C0.66 0.33 1.32 0.66 2 1 C0.92598892 3.91517292 0.22189824 5.77810176 -2 8 C-2.125 5.125 -2.125 5.125 -2 2 C-1.34 1.34 -0.68 0.68 0 0 Z " fill="#2E3758" transform="translate(483,215)"/>
<path d="M0 0 C0.66 0.33 1.32 0.66 2 1 C1.34 4.63 0.68 8.26 0 12 C-0.33 12 -0.66 12 -1 12 C-1.02687279 10.18757948 -1.04633715 8.37504767 -1.0625 6.5625 C-1.07410156 5.55316406 -1.08570313 4.54382813 -1.09765625 3.50390625 C-1 1 -1 1 0 0 Z " fill="#070B22" transform="translate(640,205)"/>
<path d="M0 0 C1.4540625 0.0309375 1.4540625 0.0309375 2.9375 0.0625 C2.6075 1.0525 2.2775 2.0425 1.9375 3.0625 C-0.125 3.75 -0.125 3.75 -2.0625 4.0625 C-2.7225 3.0725 -3.3825 2.0825 -4.0625 1.0625 C-3.0625 0.0625 -3.0625 0.0625 0 0 Z " fill="#272D60" transform="translate(119.0625,199.9375)"/>
<path d="M0 0 C1.32 0 2.64 0 4 0 C4.33 1.98 4.66 3.96 5 6 C3.0625 5.25 3.0625 5.25 1 4 C0.25 1.875 0.25 1.875 0 0 Z " fill="#474D76" transform="translate(393,176)"/>
<path d="M0 0 C0.99 0 1.98 0 3 0 C1.8141763 3.37503669 0.72426311 5.64722731 -2 8 C-2.33 6.68 -2.66 5.36 -3 4 C-2.01 4 -1.02 4 0 4 C0 2.68 0 1.36 0 0 Z " fill="#4E5475" transform="translate(82,176)"/>
<path d="M0 0 C0.66 0.33 1.32 0.66 2 1 C1.67 2.32 1.34 3.64 1 5 C-0.65 5.33 -2.3 5.66 -4 6 C-1.125 1.125 -1.125 1.125 0 0 Z " fill="#2F355D" transform="translate(106,152)"/>
<path d="M0 0 C0.66 1.32 1.32 2.64 2 4 C1.01 4.99 0.02 5.98 -1 7 C-1.99 6.01 -2.98 5.02 -4 4 C-2.68 3.67 -1.36 3.34 0 3 C0 2.01 0 1.02 0 0 Z " fill="#1E274E" transform="translate(181,113)"/>
<path d="M0 0 C2.4375 0.625 2.4375 0.625 5 2 C5.8125 5.125 5.8125 5.125 6 8 C3.33264727 5.51047079 1.44253657 3.36591866 0 0 Z " fill="#6C718E" transform="translate(303,199)"/>
<path d="M0 0 C1.11375 0.556875 1.11375 0.556875 2.25 1.125 C2.25 1.455 2.25 1.785 2.25 2.125 C-2.205 2.62 -2.205 2.62 -6.75 3.125 C-6.75 2.465 -6.75 1.805 -6.75 1.125 C-4.02098495 -0.69434337 -3.21400584 -1.02263822 0 0 Z " fill="#596684" transform="translate(120.75,192.875)"/>
<path d="M0 0 C0.99 0 1.98 0 3 0 C2.34 1.65 1.68 3.3 1 5 C0.01 5 -0.98 5 -2 5 C-1.34 3.35 -0.68 1.7 0 0 Z " fill="#4C5376" transform="translate(508,184)"/>
<path d="M0 0 C0.99 0.33 1.98 0.66 3 1 C1.25 5.875 1.25 5.875 -1 7 C-0.67 4.69 -0.34 2.38 0 0 Z " fill="#323C5C" transform="translate(75,186)"/>
<path d="M0 0 C0.99 0.33 1.98 0.66 3 1 C3.33 2.98 3.66 4.96 4 7 C3.01 7.495 3.01 7.495 2 8 C1.34 5.36 0.68 2.72 0 0 Z " fill="#48526E" transform="translate(583,180)"/>
<path d="M0 0 C0.99 0 1.98 0 3 0 C1.8141763 3.37503669 0.72426311 5.64722731 -2 8 C-2 6.68 -2 5.36 -2 4 C-1.34 4 -0.68 4 0 4 C-0.33 3.01 -0.66 2.02 -1 1 C-0.67 0.67 -0.34 0.34 0 0 Z " fill="#61647D" transform="translate(165,146)"/>
<path d="M0 0 C4.875 1.75 4.875 1.75 6 4 C5.01 4.33 4.02 4.66 3 5 C2.01 4.34 1.02 3.68 0 3 C0 2.01 0 1.02 0 0 Z " fill="#42466C" transform="translate(657,127)"/>
</svg>
