<?xml version="1.0" encoding="UTF-8"?>
<svg version="1.1" xmlns="http://www.w3.org/2000/svg" width="755" height="330">
<path d="M0 0 C0.76763672 -0.01377686 1.53527344 -0.02755371 2.32617188 -0.04174805 C4.47265625 -0.0234375 4.47265625 -0.0234375 7.9375 0.375 C13.60045398 8.86943097 9.35244401 25.82808733 7.51464844 35.63037109 C5.77020036 44.18779634 3.56004835 52.40229744 -0.0625 60.375 C-0.454375 61.48875 -0.84625 62.6025 -1.25 63.75 C-5.64984663 70.12219167 -15.40214847 71.44177997 -22.5625 73.0625 C-23.44808594 73.27455078 -24.33367187 73.48660156 -25.24609375 73.70507812 C-30.8453688 75.00828678 -36.3381346 75.84561255 -42.0625 76.375 C-41.38703125 76.375 -40.7115625 76.375 -40.015625 76.375 C-30.36458333 76.375 -20.71354167 76.375 -11.0625 76.375 C-10.06499472 78.90826836 -9.75191261 80.64670587 -10.83691406 83.19091797 C-12.05261203 85.28323106 -13.34522214 87.29908321 -14.6875 89.3125 C-15.12707031 90.00279297 -15.56664062 90.69308594 -16.01953125 91.40429688 C-19.94211737 97.47222702 -23.62394229 102.81684969 -30.0625 106.375 C-30.5575 106.87 -31.0525 107.365 -31.5625 107.875 C-33.0625 109.375 -33.0625 109.375 -35.75 110.75 C-36.513125 111.28625 -37.27625 111.8225 -38.0625 112.375 C-37.98902344 113.49261719 -37.98902344 113.49261719 -37.9140625 114.6328125 C-38.12943509 118.61153764 -40.02860341 120.04633668 -42.75 122.875 C-44.05517578 124.25171875 -44.05517578 124.25171875 -45.38671875 125.65625 C-57.5790831 138.04440414 -69.93017326 144.05813169 -87.546875 144.453125 C-88.37703125 144.42734375 -89.2071875 144.4015625 -90.0625 144.375 C-90.0625 145.035 -90.0625 145.695 -90.0625 146.375 C-89.37623535 146.27364746 -88.6899707 146.17229492 -87.98291016 146.06787109 C-84.88598955 145.61705686 -81.78691319 145.18333028 -78.6875 144.75 C-77.06714844 144.51023438 -77.06714844 144.51023438 -75.4140625 144.265625 C-74.3828125 144.12382812 -73.3515625 143.98203125 -72.2890625 143.8359375 C-71.33596191 143.69978027 -70.38286133 143.56362305 -69.40087891 143.42333984 C-68.62921387 143.4073877 -67.85754883 143.39143555 -67.0625 143.375 C-65.0625 145.375 -65.0625 145.375 -64.6953125 147.671875 C-65.88967859 156.4644424 -77.35133462 165.19781528 -84.0625 170.375 C-90.98447971 174.9662115 -97.97692502 177.59210726 -106.0625 179.375 C-103.0925 179.375 -100.1225 179.375 -97.0625 179.375 C-96.5675 181.85 -96.5675 181.85 -96.0625 184.375 C-104.57863403 192.33573398 -114.01859986 195.97833655 -125.0625 199.375 C-124.58167969 200.11105469 -124.10085938 200.84710938 -123.60546875 201.60546875 C-121.53271322 205.32593374 -121.41928347 208.16495504 -121.0625 212.375 C-124.64470375 213.67313806 -126.40990268 213.07126309 -129.8125 211.5 C-134.33555561 209.55387815 -138.16672715 208.73764984 -143.0625 208.375 C-143.22105469 208.9834375 -143.37960937 209.591875 -143.54296875 210.21875 C-145.24480267 216.61238021 -147.14606984 222.92960557 -149.15063477 229.23364258 C-150.94689158 234.91245824 -152.54137937 240.62954134 -154.0703125 246.38671875 C-155.06275881 249.37577948 -156.3385558 251.75012451 -158.0625 254.375 C-160.375 254.25 -160.375 254.25 -163.0625 253.375 C-165.15238556 250.74578913 -166.09999883 248.76245669 -166.0078125 245.3515625 C-164.14653078 234.22185754 -159.39994285 222.86908233 -154.7265625 212.6484375 C-153.81512541 209.5281058 -153.96083355 206.60486493 -154.0625 203.375 C-155.13371094 202.84390625 -156.20492188 202.3128125 -157.30859375 201.765625 C-158.70609721 201.05280444 -160.10321277 200.33922302 -161.5 199.625 C-162.20705078 199.27695313 -162.91410156 198.92890625 -163.64257812 198.5703125 C-168.87985779 195.86396703 -168.87985779 195.86396703 -169.83618164 193.30371094 C-169.9108667 192.66723633 -169.98555176 192.03076172 -170.0625 191.375 C-169.0625 190.375 -169.0625 190.375 -166 190.3125 C-165.030625 190.333125 -164.06125 190.35375 -163.0625 190.375 C-163.3925 189.385 -163.7225 188.395 -164.0625 187.375 C-163.4025 187.375 -162.7425 187.375 -162.0625 187.375 C-162.62839844 186.51777344 -163.19429688 185.66054687 -163.77734375 184.77734375 C-164.5188738 183.62280961 -165.25972314 182.46783807 -166 181.3125 C-166.37318359 180.75111328 -166.74636719 180.18972656 -167.13085938 179.61132812 C-169.70603662 175.551364 -170.78129573 172.16743872 -171.0625 167.375 C-170.0625 166.375 -170.0625 166.375 -167.625 166.1875 C-165.0625 166.375 -165.0625 166.375 -163.0625 168.375 C-163.2275 167.09625 -163.3925 165.8175 -163.5625 164.5 C-164.44693279 156.08488212 -164.05871621 148.35097473 -162.75 140 C-162.63237305 139.21439697 -162.51474609 138.42879395 -162.39355469 137.61938477 C-161.6962536 133.47793346 -161.06290394 130.51828032 -158.0625 127.375 C-153.66135603 127.87798788 -151.35054981 129.46272731 -148.0625 132.375 C-148.3925 131.281875 -148.7225 130.18875 -149.0625 129.0625 C-152.34748505 115.37106597 -147.7898483 103.23807406 -140.93359375 91.32421875 C-138.54775007 87.56365094 -136.07164388 83.88578719 -133.5 80.25 C-133.04093262 79.58556885 -132.58186523 78.9211377 -132.10888672 78.23657227 C-128.72221649 73.59097321 -128.72221649 73.59097321 -125.22265625 72.4453125 C-124.50980469 72.42210938 -123.79695313 72.39890625 -123.0625 72.375 C-121.17827583 75.20133625 -120.80627396 76.15587361 -120.3125 79.3125 C-119.063937 85.51437849 -116.03765632 90.84570005 -113.0625 96.375 C-113.18367188 95.74634033 -113.30484375 95.11768066 -113.4296875 94.4699707 C-119.20297119 64.1241483 -119.20297119 64.1241483 -115.8046875 58.171875 C-114.0182393 56.06137341 -112.09399898 54.24965531 -110.0625 52.375 C-108.57165951 50.69780445 -107.09292485 49.00978811 -105.625 47.3125 C-101.68442634 42.96200089 -97.6130075 39.07607943 -93.0625 35.375 C-92.56621094 34.96636719 -92.06992187 34.55773437 -91.55859375 34.13671875 C-80.76628763 25.28345581 -69.56625562 17.91442874 -57 11.8125 C-56.27321045 11.45325439 -55.5464209 11.09400879 -54.79760742 10.72387695 C-50.82747829 8.86004303 -49.45878244 8.27592939 -45.0625 9.375 C-45.3925 15.645 -45.7225 21.915 -46.0625 28.375 C-44.7425 24.085 -43.4225 19.795 -42.0625 15.375 C-42.7225 15.375 -43.3825 15.375 -44.0625 15.375 C-43.4025 13.395 -42.7425 11.415 -42.0625 9.375 C-41.4025 9.375 -40.7425 9.375 -40.0625 9.375 C-39.7325 8.385 -39.4025 7.395 -39.0625 6.375 C-28.16576791 0.68974848 -12.05667634 0.12100679 0 0 Z M-40.0625 43.375 C-41.0525 44.86 -41.0525 44.86 -42.0625 46.375 C-41.0725 46.045 -40.0825 45.715 -39.0625 45.375 C-39.3925 44.715 -39.7225 44.055 -40.0625 43.375 Z M-44.0625 46.375 C-44.475 46.79910156 -44.8875 47.22320312 -45.3125 47.66015625 C-49.18323376 51.59137023 -53.17743778 55.30079138 -57.36328125 58.89453125 C-58.63979445 60.00671172 -59.86533014 61.17783014 -61.0625 62.375 C-61.0625 63.365 -61.0625 64.355 -61.0625 65.375 C-61.7225 65.705 -62.3825 66.035 -63.0625 66.375 C-59.96194369 66.70039569 -59.96194369 66.70039569 -57.875 64.5 C-55.84618446 62.58688666 -55.84618446 62.58688666 -56.0625 60.375 C-55.51078125 60.16101563 -54.9590625 59.94703125 -54.390625 59.7265625 C-51.28130764 57.921489 -49.14977863 55.42699936 -46.8125 52.75 C-46.35359375 52.234375 -45.8946875 51.71875 -45.421875 51.1875 C-44.29657704 49.9215398 -43.17877823 48.64892058 -42.0625 47.375 C-42.7225 47.045 -43.3825 46.715 -44.0625 46.375 Z M-65.0625 67.375 C-68.0325 69.85 -68.0325 69.85 -71.0625 72.375 C-70.7325 73.035 -70.4025 73.695 -70.0625 74.375 C-68.0825 72.725 -66.1025 71.075 -64.0625 69.375 C-64.3925 68.715 -64.7225 68.055 -65.0625 67.375 Z M-73.0625 75.375 C-72.0625 77.375 -72.0625 77.375 -72.0625 77.375 Z M-75.0625 77.375 C-80.70331815 83.50187504 -86.02929507 89.74245893 -91.0625 96.375 C-92.18608376 97.81360724 -93.31110733 99.251091 -94.4375 100.6875 C-95.64754533 102.24867456 -96.85576147 103.81126799 -98.0625 105.375 C-99.114375 106.73238281 -99.114375 106.73238281 -100.1875 108.1171875 C-105.91934837 115.62033623 -111.07915108 123.36604638 -116.0625 131.375 C-116.66578125 132.34308594 -117.2690625 133.31117188 -117.890625 134.30859375 C-120.71018141 138.82466783 -120.71018141 138.82466783 -122.91015625 143.65234375 C-123.87677327 145.93618125 -124.8684321 147.70839909 -126.20703125 149.76953125 C-129.76658171 155.33549253 -132.72324293 161.22282417 -135.73852539 167.09399414 C-136.754267 169.07080432 -137.77615176 171.04434816 -138.79882812 173.01757812 C-144.04829609 181.46457586 -144.04829609 181.46457586 -145.6875 190.6875 C-145.48125 191.244375 -145.275 191.80125 -145.0625 192.375 C-145.0625 191.385 -145.0625 190.395 -145.0625 189.375 C-144.4025 189.375 -143.7425 189.375 -143.0625 189.375 C-142.2499349 187.74986979 -141.43740131 186.12472382 -140.625 184.49951172 C-139.90676894 183.06337967 -139.18800474 181.62751416 -138.46875 180.19189453 C-136.64398139 176.54790131 -134.82630031 172.90092239 -133.03125 169.2421875 C-127.21577105 157.42270505 -120.91247168 146.01415565 -113.703125 134.97265625 C-112.47609203 133.02985404 -111.31437857 131.04552587 -110.1875 129.04296875 C-107.94460878 125.08363379 -105.40908004 121.35894756 -102.8125 117.625 C-102.32652344 116.9232666 -101.84054687 116.2215332 -101.33984375 115.49853516 C-92.44906845 102.69898562 -83.08405875 90.31058619 -73.0625 78.375 C-74.0525 77.88 -74.0525 77.88 -75.0625 77.375 Z M-112.0625 99.375 C-111.0625 101.375 -111.0625 101.375 -111.0625 101.375 Z M-147.0625 135.375 C-147.3127157 138.29134129 -147.3127157 138.29134129 -147.0625 141.375 C-145.5775 142.365 -145.5775 142.365 -144.0625 143.375 C-144.7225 140.735 -145.3825 138.095 -146.0625 135.375 C-146.3925 135.375 -146.7225 135.375 -147.0625 135.375 Z M-104.0625 146.375 C-104.0625 146.705 -104.0625 147.035 -104.0625 147.375 C-100.1025 147.375 -96.1425 147.375 -92.0625 147.375 C-92.0625 146.385 -92.0625 145.395 -92.0625 144.375 C-96.53089215 144.16221942 -99.88512526 144.78361915 -104.0625 146.375 Z M-147.0625 192.375 C-146.0625 194.375 -146.0625 194.375 -146.0625 194.375 Z M-148.0625 194.375 C-147.0625 196.375 -147.0625 196.375 -147.0625 196.375 Z " fill="#222E5E" transform="translate(458.0625,43.625)"/>
<path d="M0 0 C0.66 0.66 1.32 1.32 2 2 C1.61328125 3.12535156 1.2265625 4.25070312 0.828125 5.41015625 C-1.73156931 12.93430599 -4.18026173 20.4160575 -6.125 28.125 C-7.51351694 33.55655156 -9.22173596 38.13803793 -12 43 C-14.3125 42.875 -14.3125 42.875 -17 42 C-19.08988556 39.37078913 -20.03749883 37.38745669 -19.9453125 33.9765625 C-18.1145025 23.02906598 -13.44487854 12.12370844 -9 2 C-8.1028125 2.495 -8.1028125 2.495 -7.1875 3 C-4.94613529 4.20787988 -4.94613529 4.20787988 -2 4 C-1.34 2.68 -0.68 1.36 0 0 Z " fill="#1F2A5B" transform="translate(312,255)"/>
<path d="M0 0 C0.66 0 1.32 0 2 0 C3 3 3 3 3 5 C3.99 4.67 4.98 4.34 6 4 C6 4.99 6 5.98 6 7 C6.66 7 7.32 7 8 7 C7.52846905 9.42501634 7.05397926 11.81107261 6.375 14.1875 C5.78653641 16.08903493 5.78653641 16.08903493 7 18 C6.06553465 20.03144641 5.06775224 22.03533587 4 24 C3.01 24 2.02 24 1 24 C1 20.7 1 17.4 1 14 C-0.07121094 13.46890625 -1.14242188 12.9378125 -2.24609375 12.390625 C-3.64359721 11.67780444 -5.04071277 10.96422302 -6.4375 10.25 C-7.14455078 9.90195313 -7.85160156 9.55390625 -8.58007812 9.1953125 C-13.81735779 6.48896703 -13.81735779 6.48896703 -14.77368164 3.92871094 C-14.8483667 3.29223633 -14.92305176 2.65576172 -15 2 C-14.67 1.67 -14.34 1.34 -14 1 C-11.64305046 1.09031574 -9.28846418 1.24688128 -6.9375 1.4375 C-5.64714844 1.53933594 -4.35679687 1.64117187 -3.02734375 1.74609375 C-1.52880859 1.87177734 -1.52880859 1.87177734 0 2 C0 1.34 0 0.68 0 0 Z " fill="#1C2A55" transform="translate(303,233)"/>
<path d="M0 0 C0.33 0 0.66 0 1 0 C1.125 5.75 1.125 5.75 0 8 C0.99 8 1.98 8 3 8 C3.66 6.68 4.32 5.36 5 4 C6.65 4 8.3 4 10 4 C9.53272556 10.30820489 8.3565966 16.53354268 5 22 C3 22.8828125 3 22.8828125 1 23 C-1.79218029 21.00558551 -2.8385797 19.59845718 -3.734375 16.27734375 C-4.04836576 12.40325187 -3.29877015 9.79634772 -2.0625 6.125 C-1.49208984 4.39636719 -1.49208984 4.39636719 -0.91015625 2.6328125 C-0.60980469 1.76398438 -0.30945313 0.89515625 0 0 Z " fill="#3A456D" transform="translate(296,275)"/>
<path d="M0 0 C1.65 0 3.3 0 5 0 C5.33 1.32 5.66 2.64 6 4 C7.32 4 8.64 4 10 4 C9.67 5.98 9.34 7.96 9 10 C7.68 9.34 6.36 8.68 5 8 C5.54723683 11.37462715 6.0549 13.08235 8 16 C6.17578125 15.796875 6.17578125 15.796875 4 15 C2.48046875 12.890625 2.48046875 12.890625 1.1875 10.25 C0.52814453 8.95835937 0.52814453 8.95835937 -0.14453125 7.640625 C-1.11763492 4.63688947 -0.87748198 2.99312872 0 0 Z " fill="#222A53" transform="translate(288,210)"/>
<path d="M0 0 C0.66 0.66 1.32 1.32 2 2 C-0.31 8.93 -2.62 15.86 -5 23 C-5.33 23 -5.66 23 -6 23 C-6.125 16.375 -6.125 16.375 -5 13 C-5.66 12.67 -6.32 12.34 -7 12 C-6.67 10.68 -6.34 9.36 -6 8 C-6.99 7.67 -7.98 7.34 -9 7 C-9 7.66 -9 8.32 -9 9 C-9.66 9 -10.32 9 -11 9 C-10.34 6.69 -9.68 4.38 -9 2 C-8.401875 2.33 -7.80375 2.66 -7.1875 3 C-4.94613529 4.20787988 -4.94613529 4.20787988 -2 4 C-1.34 2.68 -0.68 1.36 0 0 Z " fill="#3B4366" transform="translate(312,255)"/>
<path d="M0 0 C1.6396875 0.2475 1.6396875 0.2475 3.3125 0.5 C6.87525873 1.06718184 6.87525873 1.06718184 10 1 C9.649375 2.11375 9.29875 3.2275 8.9375 4.375 C7.62760669 7.80264476 7.62760669 7.80264476 9 10 C8.06553465 12.03144641 7.06775224 14.03533587 6 16 C5.01 16 4.02 16 3 16 C3.05800781 15.32453125 3.11601562 14.6490625 3.17578125 13.953125 C3.31376976 11.22489502 3.36106517 8.71011266 3 6 C0.70142894 3.32181017 0.70142894 3.32181017 -2 2 C-1.34 2 -0.68 2 0 2 C0 1.34 0 0.68 0 0 Z " fill="#2C3861" transform="translate(301,241)"/>
<path d="M0 0 C1.485 0.99 1.485 0.99 3 2 C3.66 1.34 4.32 0.68 5 0 C5.99 0 6.98 0 8 0 C9 3 9 3 8.22265625 5.04296875 C7.83980469 5.75066406 7.45695312 6.45835937 7.0625 7.1875 C6.68222656 7.90292969 6.30195313 8.61835938 5.91015625 9.35546875 C5.60980469 9.89816406 5.30945313 10.44085938 5 11 C3.35 10.67 1.7 10.34 0 10 C-1.125 3.375 -1.125 3.375 0 0 Z " fill="#222C5D" transform="translate(295,287)"/>
<path d="M0 0 C-0.58660246 6.67728333 -1.23581011 13.34063095 -2 20 C-4.31702604 15.79502682 -5.10235973 11.79384741 -5 7 C-3.5625 3.9375 -3.5625 3.9375 -2 2 C-5.86648272 3.04097612 -9.49461443 4.03698408 -13 6 C-13 5.01 -13 4.02 -13 3 C-11.5903653 2.29819469 -10.17192359 1.61406042 -8.75 0.9375 C-7.96109375 0.55464844 -7.1721875 0.17179687 -6.359375 -0.22265625 C-3.74006478 -1.08564091 -2.55144824 -0.93045933 0 0 Z " fill="#262D4F" transform="translate(413,53)"/>
<path d="M0 0 C0.99 0.33 1.98 0.66 3 1 C3.33 3.64 3.66 6.28 4 9 C3.34 9 2.68 9 2 9 C1.67 9.66 1.34 10.32 1 11 C0.01 10.67 -0.98 10.34 -2 10 C-2.66 11.32 -3.32 12.64 -4 14 C-4.99 13.67 -5.98 13.34 -7 13 C-6.67 10.36 -6.34 7.72 -6 5 C-4.68 5 -3.36 5 -2 5 C-1.34 3.35 -0.68 1.7 0 0 Z " fill="#1E2A5A" transform="translate(303,270)"/>
<path d="M0 0 C0.66 0.33 1.32 0.66 2 1 C1.47858972 6.09179666 0.31866922 9.97844957 -1.9375 14.5625 C-3.93816049 18.6572179 -5.6446102 22.64572841 -7 27 C-7.33 27 -7.66 27 -8 27 C-7.88529863 25.24929483 -7.75780972 23.49942464 -7.625 21.75 C-7.55539062 20.77546875 -7.48578125 19.8009375 -7.4140625 18.796875 C-7.01123233 16.07587121 -6.37674624 14.35194149 -5 12 C-3.56772102 9.53329731 -2.99196212 8.32955311 -3.0625 5.4375 C-3 3 -3 3 -1.5 1.1875 C-1.005 0.795625 -0.51 0.40375 0 0 Z " fill="#424869" transform="translate(318,211)"/>
<path d="M0 0 C0.66 0.33 1.32 0.66 2 1 C1.41982416 4.76261099 -0.19984407 6.67163539 -2.75 9.4375 C-3.82507813 10.60925781 -3.82507813 10.60925781 -4.921875 11.8046875 C-7.23884359 14.25231222 -9.57937201 16.65501663 -12 19 C-12 18.34 -12 17.68 -12 17 C-12.66 16.67 -13.32 16.34 -14 16 C-13.01 15.67 -12.02 15.34 -11 15 C-10.5359375 13.515 -10.5359375 13.515 -10.0625 12 C-9.711875 11.01 -9.36125 10.02 -9 9 C-6.875 8.125 -6.875 8.125 -5 8 C-5 7.01 -5 6.02 -5 5 C-4.34 5 -3.68 5 -3 5 C-3 4.34 -3 3.68 -3 3 C-2.01 3 -1.02 3 0 3 C0 2.01 0 1.02 0 0 Z " fill="#2E375B" transform="translate(379,121)"/>
<path d="M0 0 C1.65 0.33 3.3 0.66 5 1 C5 1.66 5 2.32 5 3 C3.35 3.33 1.7 3.66 0 4 C0.92683594 4.04898438 1.85367187 4.09796875 2.80859375 4.1484375 C4.00613281 4.22320312 5.20367187 4.29796875 6.4375 4.375 C8.22994141 4.47941406 8.22994141 4.47941406 10.05859375 4.5859375 C11.51458984 4.79089844 11.51458984 4.79089844 13 5 C13.33 5.66 13.66 6.32 14 7 C11.24993392 7.0270203 8.50013454 7.04684883 5.75 7.0625 C4.97269531 7.07087891 4.19539063 7.07925781 3.39453125 7.08789062 C2.26337891 7.09272461 2.26337891 7.09272461 1.109375 7.09765625 C0.07248535 7.10551147 0.07248535 7.10551147 -0.98535156 7.11352539 C-3.09973898 6.99437971 -4.96641515 6.57618237 -7 6 C-6.67 5.01 -6.34 4.02 -6 3 C-4.35 3 -2.7 3 -1 3 C-0.67 2.01 -0.34 1.02 0 0 Z " fill="#394061" transform="translate(355,186)"/>
<path d="M0 0 C-0.33 0.66 -0.66 1.32 -1 2 C2.63 2 6.26 2 10 2 C10 2.66 10 3.32 10 4 C9.02417969 4.06058594 8.04835938 4.12117188 7.04296875 4.18359375 C5.13451172 4.30927734 5.13451172 4.30927734 3.1875 4.4375 C1.92292969 4.51871094 0.65835937 4.59992188 -0.64453125 4.68359375 C-3.99181893 4.87184547 -3.99181893 4.87184547 -7 6 C-7.33 5.67 -7.66 5.34 -8 5 C-10.32817964 4.63239269 -12.6618385 4.29758419 -15 4 C-15 3.01 -15 2.02 -15 1 C-10.03926578 -0.32286246 -5.08888488 -0.08893197 0 0 Z " fill="#58617F" transform="translate(417,118)"/>
<path d="M0 0 C3.63 0.66 7.26 1.32 11 2 C10.01 2.495 10.01 2.495 9 3 C8.67 3.66 8.34 4.32 8 5 C4.37 5 0.74 5 -3 5 C-3 5.66 -3 6.32 -3 7 C-5.31 7 -7.62 7 -10 7 C-9.67 6.34 -9.34 5.68 -9 5 C-10.65 4.67 -12.3 4.34 -14 4 C-14 3.67 -14 3.34 -14 3 C-9.38 3 -4.76 3 0 3 C0 2.01 0 1.02 0 0 Z " fill="#1F284F" transform="translate(427,119)"/>
<path d="M0 0 C4.95 0 9.9 0 15 0 C15.33 1.65 15.66 3.3 16 5 C15.34 5.66 14.68 6.32 14 7 C14 6.01 14 5.02 14 4 C13.01 4 12.02 4 11 4 C10.67 4.66 10.34 5.32 10 6 C8.31503702 5.03114628 6.64821244 4.03013277 5 3 C5 2.67 5 2.34 5 2 C3.35 1.67 1.7 1.34 0 1 C0 0.67 0 0.34 0 0 Z " fill="#424D6E" transform="translate(432,120)"/>
<path d="M0 0 C1.65 0 3.3 0 5 0 C5.37125 1.2065625 5.37125 1.2065625 5.75 2.4375 C6.72238859 5.171081 6.72238859 5.171081 9.125 5.8125 C10.053125 5.9053125 10.053125 5.9053125 11 6 C10.67 6.99 10.34 7.98 10 9 C8.53932801 8.54917531 7.08151968 8.08906463 5.625 7.625 C4.81289063 7.36976563 4.00078125 7.11453125 3.1640625 6.8515625 C1 6 1 6 -1 4 C-0.625 1.875 -0.625 1.875 0 0 Z " fill="#36456E" transform="translate(289,234)"/>
<path d="M0 0 C1.2065625 0.0309375 1.2065625 0.0309375 2.4375 0.0625 C2.7675 1.7125 3.0975 3.3625 3.4375 5.0625 C-0.5225 4.7325 -4.4825 4.4025 -8.5625 4.0625 C-8.5625 4.7225 -8.5625 5.3825 -8.5625 6.0625 C-9.5525 6.0625 -10.5425 6.0625 -11.5625 6.0625 C-11.2325 4.4125 -10.9025 2.7625 -10.5625 1.0625 C-9.428125 1.083125 -8.29375 1.10375 -7.125 1.125 C-3.34891585 1.05875291 -3.4052247 0.08305426 0 0 Z " fill="#4C516E" transform="translate(323.5625,247.9375)"/>
<path d="M0 0 C0.94875 0.04125 1.8975 0.0825 2.875 0.125 C1.885 0.455 0.895 0.785 -0.125 1.125 C-0.455 2.115 -0.785 3.105 -1.125 4.125 C-4.27430893 5.17476964 -6.51314456 5.22631595 -9.8125 5.1875 C-10.80636719 5.17847656 -11.80023438 5.16945312 -12.82421875 5.16015625 C-13.96310547 5.14275391 -13.96310547 5.14275391 -15.125 5.125 C-14.795 4.135 -14.465 3.145 -14.125 2.125 C-13.18527344 2.15980469 -13.18527344 2.15980469 -12.2265625 2.1953125 C-11.00066406 2.22238281 -11.00066406 2.22238281 -9.75 2.25 C-8.53183594 2.28480469 -8.53183594 2.28480469 -7.2890625 2.3203125 C-3.912847 2.01559991 -3.70226392 0.14809056 0 0 Z " fill="#162251" transform="translate(414.125,153.875)"/>
<path d="M0 0 C-1 3 -1 3 -3.58203125 4.421875 C-4.64808594 4.86015625 -5.71414063 5.2984375 -6.8125 5.75 C-7.87082031 6.19859375 -8.92914063 6.6471875 -10.01953125 7.109375 C-12.97380744 7.99217313 -14.1900769 8.11580482 -17 7 C-17 6.34 -17 5.68 -17 5 C-16.08476562 4.72285156 -15.16953125 4.44570312 -14.2265625 4.16015625 C-13.03804688 3.79792969 -11.84953125 3.43570313 -10.625 3.0625 C-9.44164062 2.70285156 -8.25828125 2.34320313 -7.0390625 1.97265625 C-0.87550201 0 -0.87550201 0 0 0 Z " fill="#2D3555" transform="translate(403,177)"/>
<path d="M0 0 C0 4.79218001 -2.36540791 7.31897434 -5.5625 10.75 C-8 13 -8 13 -10 14 C-10.99 13.34 -11.98 12.68 -13 12 C-8.71 8.04 -4.42 4.08 0 0 Z " fill="#575E7C" transform="translate(366,78)"/>
<path d="M0 0 C0.99 0 1.98 0 3 0 C2.7834375 0.87011719 2.7834375 0.87011719 2.5625 1.7578125 C1.49110572 6.26659675 0.76054064 10.33054247 1 15 C0.01 15.33 -0.98 15.66 -2 16 C-2.05402274 13.89611431 -2.09280256 11.79183286 -2.125 9.6875 C-2.14820313 8.51574219 -2.17140625 7.34398438 -2.1953125 6.13671875 C-2 3 -2 3 0 0 Z " fill="#242C4E" transform="translate(343,101)"/>
<path d="M0 0 C0.66 0 1.32 0 2 0 C2.33 0.99 2.66 1.98 3 3 C2.34 3.66 1.68 4.32 1 5 C0.34 4.67 -0.32 4.34 -1 4 C-0.938125 4.763125 -0.87625 5.52625 -0.8125 6.3125 C-1 9 -1 9 -2.375 10.8125 C-4 12 -4 12 -6 12 C-6 12.99 -6 13.98 -6 15 C-6.99 15.33 -7.98 15.66 -9 16 C-8.36337692 11.96478908 -6.30438124 9.10674081 -4.0625 5.75 C-3.35222656 4.67234375 -2.64195312 3.5946875 -1.91015625 2.484375 C-1.27980469 1.66453125 -0.64945312 0.8446875 0 0 Z " fill="#141C46" transform="translate(355,160)"/>
<path d="M0 0 C1.65 0 3.3 0 5 0 C6.44207941 2.88415883 6.09394887 5.41721528 6.0625 8.625 C6.05347656 9.81351563 6.04445313 11.00203125 6.03515625 12.2265625 C6.02355469 13.14179687 6.01195312 14.05703125 6 15 C5.01 15.495 5.01 15.495 4 16 C4 15.34 4 14.68 4 14 C3.34 13.67 2.68 13.34 2 13 C2.33 12.67 2.66 12.34 3 12 C3.07179964 10.48071962 3.08392007 8.95832518 3.0625 7.4375 C3.04896484 6.19806641 3.04896484 6.19806641 3.03515625 4.93359375 C3.02355469 4.29550781 3.01195312 3.65742187 3 3 C2.34 3 1.68 3 1 3 C0.67 2.01 0.34 1.02 0 0 Z " fill="#1C2450" transform="translate(462,45)"/>
<path d="M0 0 C4.83256305 0.41421969 6.82679218 2.46413986 10 6 C9.67 6.99 9.34 7.98 9 9 C8.52949219 8.65066406 8.05898438 8.30132812 7.57421875 7.94140625 C6.95160156 7.48636719 6.32898438 7.03132812 5.6875 6.5625 C5.07261719 6.11003906 4.45773437 5.65757812 3.82421875 5.19140625 C1.90322899 3.82663692 1.90322899 3.82663692 -1 3 C-0.67 2.01 -0.34 1.02 0 0 Z " fill="#3A4062" transform="translate(300,171)"/>
<path d="M0 0 C0 1.98 0 3.96 0 6 C-0.7425 6.144375 -1.485 6.28875 -2.25 6.4375 C-4.52027739 6.90187492 -6.75759479 7.41863569 -9 8 C-8.875 6.25 -8.875 6.25 -8 4 C-2.77777778 0 -2.77777778 0 0 0 Z " fill="#384364" transform="translate(422,82)"/>
<path d="M0 0 C0.99 0.33 1.98 0.66 3 1 C0.03 4.3 -2.94 7.6 -6 11 C-6.66 9.68 -7.32 8.36 -8 7 C-6.74057614 5.80040625 -5.46704714 4.61560557 -4.1875 3.4375 C-3.12595703 2.44556641 -3.12595703 2.44556641 -2.04296875 1.43359375 C-1.36878906 0.96050781 -0.69460938 0.48742187 0 0 Z " fill="#656985" transform="translate(386,198)"/>
<path d="M0 0 C0.66 0 1.32 0 2 0 C2.4217962 4.63975825 1.19302649 7.92723652 -1 12 C-3.109375 12.703125 -3.109375 12.703125 -5 13 C-4.54554036 11.58208592 -4.08625056 10.16571954 -3.625 8.75 C-3.24214844 7.56664062 -3.24214844 7.56664062 -2.8515625 6.359375 C-2.04826333 4.13372042 -1.10288338 2.09068328 0 0 Z " fill="#454F70" transform="translate(315,139)"/>
<path d="M0 0 C1.65 0.33 3.3 0.66 5 1 C5.3125 3.1875 5.3125 3.1875 5 6 C2.5 8.8125 2.5 8.8125 0 11 C-1.11491267 7.65526199 -0.80511271 5.39936478 0 2 C0 1.34 0 0.68 0 0 Z " fill="#233058" transform="translate(415,155)"/>
<path d="M0 0 C2.1519437 3.22791555 2.20086443 4.28400809 2 8 C0.375 8.6875 0.375 8.6875 -2 9 C-5.25 7.5625 -5.25 7.5625 -8 6 C-7.34 5.67 -6.68 5.34 -6 5 C-5.67 4.01 -5.34 3.02 -5 2 C-3.68 3.32 -2.36 4.64 -1 6 C-0.67 4.02 -0.34 2.04 0 0 Z " fill="#6C738E" transform="translate(335,248)"/>
<path d="M0 0 C0.66 0.33 1.32 0.66 2 1 C1.67 2.32 1.34 3.64 1 5 C0.34 5 -0.32 5 -1 5 C-1.33 6.65 -1.66 8.3 -2 10 C-3.32 10.33 -4.64 10.66 -6 11 C-5.55530671 5.96014269 -3.28656638 3.62365012 0 0 Z " fill="#404B6A" transform="translate(383,123)"/>
<path d="M0 0 C0.66 0 1.32 0 2 0 C1.45276317 3.37462715 0.9451 5.08235 -1 8 C-2.65 7.67 -4.3 7.34 -6 7 C-5.67 5.68 -5.34 4.36 -5 3 C-3.68 3 -2.36 3 -1 3 C-0.67 2.01 -0.34 1.02 0 0 Z " fill="#43496A" transform="translate(301,290)"/>
<path d="M0 0 C0.66 0 1.32 0 2 0 C2.33 1.32 2.66 2.64 3 4 C3.99 3.67 4.98 3.34 6 3 C4.125 8.75 4.125 8.75 3 11 C2.01 11 1.02 11 0 11 C0 7.37 0 3.74 0 0 Z " fill="#59607E" transform="translate(304,246)"/>
<path d="M0 0 C0 1.65 0 3.3 0 5 C-0.66 5 -1.32 5 -2 5 C-2.33 4.67 -2.66 4.34 -3 4 C-3.33 4.99 -3.66 5.98 -4 7 C-4.33 5.68 -4.66 4.36 -5 3 C-5.66 3 -6.32 3 -7 3 C-7 2.01 -7 1.02 -7 0 C-3.98968256 -0.93423645 -3.13349732 -1.04449911 0 0 Z " fill="#283051" transform="translate(392,188)"/>
<path d="M0 0 C0.66 0.33 1.32 0.66 2 1 C0.32598022 4.95677402 -2.13149285 7.84464213 -5 11 C-5.66 11 -6.32 11 -7 11 C-6.58485103 6.1565954 -4.53791301 4.18412171 -1 1 C-0.67 0.67 -0.34 0.34 0 0 Z " fill="#222951" transform="translate(413,164)"/>
<path d="M0 0 C0.66 0.33 1.32 0.66 2 1 C0.5129879 5.59621922 -1.79812128 8.46972347 -5 12 C-5.33 12 -5.66 12 -6 12 C-5.67 9.69 -5.34 7.38 -5 5 C-3.35 4.34 -1.7 3.68 0 3 C0 2.01 0 1.02 0 0 Z " fill="#51567B" transform="translate(438,135)"/>
<path d="M0 0 C0.33 0 0.66 0 1 0 C1.33 3.96 1.66 7.92 2 12 C0.35 11.67 -1.3 11.34 -3 11 C-2.69078116 9.54096742 -2.37751201 8.08279278 -2.0625 6.625 C-1.88847656 5.81289063 -1.71445312 5.00078125 -1.53515625 4.1640625 C-1 2 -1 2 0 0 Z " fill="#4B5177" transform="translate(300,264)"/>
<path d="M0 0 C0.99 0.33 1.98 0.66 3 1 C3 1.99 3 2.98 3 4 C4.32 4 5.64 4 7 4 C6.67 5.98 6.34 7.96 6 10 C4.125 9.5 4.125 9.5 2 8 C1.01505446 5.34822355 0.54087618 2.79452693 0 0 Z " fill="#0D1644" transform="translate(291,210)"/>
<path d="M0 0 C0.99 0.33 1.98 0.66 3 1 C0.03 5.95 0.03 5.95 -3 11 C-3.99 10.67 -4.98 10.34 -6 10 C-4.27256146 6.38060496 -2.52349243 3.12432397 0 0 Z " fill="#161D47" transform="translate(347,163)"/>
<path d="M0 0 C-0.639375 0.28875 -1.27875 0.5775 -1.9375 0.875 C-4.15206079 1.82823451 -4.15206079 1.82823451 -5 4 C-5.78375 3.814375 -6.5675 3.62875 -7.375 3.4375 C-9.97089775 2.74037734 -9.97089775 2.74037734 -12 4 C-11.67 2.68 -11.34 1.36 -11 0 C-3.375 -2.25 -3.375 -2.25 0 0 Z " fill="#1F2954" transform="translate(432,49)"/>
<path d="M0 0 C0.598125 0.309375 1.19625 0.61875 1.8125 0.9375 C4.08956772 2.10209704 4.08956772 2.10209704 7 3 C6.67 4.65 6.34 6.3 6 8 C3.625 7.3125 3.625 7.3125 1 6 C-0.3125 3.375 -0.3125 3.375 -1 1 C-0.67 0.67 -0.34 0.34 0 0 Z " fill="#1B2654" transform="translate(303,176)"/>
<path d="M0 0 C2.52394612 3.12488567 4.39701907 6.31314387 6 10 C5.67 10.66 5.34 11.32 5 12 C1.125 9.125 1.125 9.125 0 8 C-0.14115161 5.32941149 -0.04247107 2.67567762 0 0 Z " fill="#5A607E" transform="translate(340,133)"/>
<path d="M0 0 C0.99 0.33 1.98 0.66 3 1 C0.36 5.95 -2.28 10.9 -5 16 C-6.39195915 11.82412255 -4.82323219 9.86525224 -3 6 C-2.34 6 -1.68 6 -1 6 C-0.67 4.02 -0.34 2.04 0 0 Z " fill="#7B7E95" transform="translate(327,197)"/>
<path d="M0 0 C0.33 0.66 0.66 1.32 1 2 C0.34 1.67 -0.32 1.34 -1 1 C-0.67 0.67 -0.34 0.34 0 0 Z M-11 1 C-4.375 0.75 -4.375 0.75 -1 3 C-1.99 3.495 -1.99 3.495 -3 4 C-3 4.66 -3 5.32 -3 6 C-2.01 6.66 -1.02 7.32 0 8 C-0.99 8.33 -1.98 8.66 -3 9 C-4.5 7.6875 -4.5 7.6875 -6 6 C-6 5.01 -6 4.02 -6 3 C-7.65 3 -9.3 3 -11 3 C-11 2.34 -11 1.68 -11 1 Z " fill="#172050" transform="translate(372,184)"/>
<path d="M0 0 C0.33 0.66 0.66 1.32 1 2 C1.66 2.33 2.32 2.66 3 3 C1.02 3.33 -0.96 3.66 -3 4 C-3 4.99 -3 5.98 -3 7 C-4.65 6.67 -6.3 6.34 -8 6 C-7.67 5.34 -7.34 4.68 -7 4 C-6.34 4 -5.68 4 -5 4 C-5 3.34 -5 2.68 -5 2 C-4.360625 1.855625 -3.72125 1.71125 -3.0625 1.5625 C-1.02454854 1.18992819 -1.02454854 1.18992819 0 0 Z " fill="#18234E" transform="translate(353,218)"/>
<path d="M0 0 C0.66 0.99 1.32 1.98 2 3 C1.25 5.625 1.25 5.625 0 8 C-0.99 8.495 -0.99 8.495 -2 9 C-2.99 8.34 -3.98 7.68 -5 7 C-3.35 4.69 -1.7 2.38 0 0 Z " fill="#3A4062" transform="translate(364,147)"/>
<path d="M0 0 C-1.07401108 2.91517292 -1.77810176 4.77810176 -4 7 C-6.625 7.125 -6.625 7.125 -9 7 C-8.07347299 5.82460004 -7.13336613 4.65989423 -6.1875 3.5 C-5.66542969 2.8503125 -5.14335937 2.200625 -4.60546875 1.53125 C-3 0 -3 0 0 0 Z " fill="#454E74" transform="translate(398,110)"/>
<path d="M0 0 C-0.33 0.99 -0.66 1.98 -1 3 C-3.31074405 3.74118205 -5.64811553 4.40206327 -8 5 C-9.35350594 5.62469505 -10.69934483 6.2716331 -12 7 C-12 6.01 -12 5.02 -12 4 C-10.56570999 3.32645501 -9.12742943 2.66140299 -7.6875 2 C-6.88699219 1.62875 -6.08648437 1.2575 -5.26171875 0.875 C-3 0 -3 0 0 0 Z " fill="#161B44" transform="translate(412,52)"/>
<path d="M0 0 C3.63 0.66 7.26 1.32 11 2 C10.01 2.495 10.01 2.495 9 3 C8.67 3.66 8.34 4.32 8 5 C5.36 4.67 2.72 4.34 0 4 C0 2.68 0 1.36 0 0 Z " fill="#151D3F" transform="translate(427,119)"/>
<path d="M0 0 C0.33 0.66 0.66 1.32 1 2 C-0.78871178 2.38885039 -2.58112874 2.76069196 -4.375 3.125 C-5.37273437 3.33382812 -6.37046875 3.54265625 -7.3984375 3.7578125 C-8.25695312 3.83773437 -9.11546875 3.91765625 -10 4 C-10.66 3.34 -11.32 2.68 -12 2 C-7.8803623 0.70756464 -4.33168317 -0.26252625 0 0 Z " fill="#1A2542" transform="translate(433,115)"/>
<path d="M0 0 C0 2.83967231 -0.40267181 5.23735711 -1 8 C-3.31 8 -5.62 8 -8 8 C-5.33333333 5.33333333 -2.66666667 2.66666667 0 0 Z " fill="#6B708F" transform="translate(376,70)"/>
<path d="M0 0 C3 -0.3125 3 -0.3125 6 0 C6.66 0.66 7.32 1.32 8 2 C4.21812119 3.83691257 2.05431692 4.15837626 -2 3 C-1.34 2.01 -0.68 1.02 0 0 Z " fill="#141E4D" transform="translate(325,240)"/>
<path d="M0 0 C0.66 0 1.32 0 2 0 C1.82374165 2.37948772 1.30280227 3.70225849 -0.40234375 5.37890625 C-1.90649092 6.62115486 -3.45129851 7.81376056 -5 9 C-5.33 8.01 -5.66 7.02 -6 6 C-5.34 6 -4.68 6 -4 6 C-4 5.34 -4 4.68 -4 4 C-2.68 3.67 -1.36 3.34 0 3 C0 2.01 0 1.02 0 0 Z " fill="#3C4062" transform="translate(377,206)"/>
<path d="M0 0 C0.99 0.33 1.98 0.66 3 1 C3 2.65 3 4.3 3 6 C1.02 6.99 1.02 6.99 -1 8 C-1.04241723 5.66705225 -1.04092937 3.33297433 -1 1 C-0.67 0.67 -0.34 0.34 0 0 Z " fill="#182552" transform="translate(410,76)"/>
<path d="M0 0 C0.66 0.66 1.32 1.32 2 2 C1.64644564 4.26274788 1.02455574 5.95088852 0 8 C-0.99 8 -1.98 8 -3 8 C-1.125 2.25 -1.125 2.25 0 0 Z " fill="#3D4366" transform="translate(321,219)"/>
<path d="M0 0 C-1 3 -1 3 -3.875 4.75 C-7 6 -7 6 -10 5 C-9.34 5 -8.68 5 -8 5 C-8 4.34 -8 3.68 -8 3 C-2.25 0 -2.25 0 0 0 Z " fill="#353C57" transform="translate(403,177)"/>
<path d="M0 0 C2.1875 0.3125 2.1875 0.3125 4 1 C4.33 2.65 4.66 4.3 5 6 C4.01 5.34 3.02 4.68 2 4 C0.34450469 3.61500109 -1.3222433 3.27206865 -3 3 C-1.75 1.4375 -1.75 1.4375 0 0 Z " fill="#6F7282" transform="translate(332,116)"/>
<path d="M0 0 C0.66 0.33 1.32 0.66 2 1 C1.6875 2.875 1.6875 2.875 1 5 C0.01 5.66 -0.98 6.32 -2 7 C-2 6.34 -2 5.68 -2 5 C-2.66 5 -3.32 5 -4 5 C-3 2 -3 2 0 0 Z " fill="#141E4E" transform="translate(428,77)"/>
<path d="M0 0 C0.66 0 1.32 0 2 0 C2.6875 2.3125 2.6875 2.3125 3 5 C1.5625 6.8125 1.5625 6.8125 0 8 C0 7.34 0 6.68 0 6 C-0.66 6 -1.32 6 -2 6 C-1.34 4.02 -0.68 2.04 0 0 Z " fill="#2B395C" transform="translate(416,53)"/>
<path d="M0 0 C0 0.99 0 1.98 0 3 C-3.40562852 3.77842938 -6.50765756 4.09978121 -10 4 C-6.77484237 2.26337666 -3.48670834 1.1094072 0 0 Z " fill="#0F1B4A" transform="translate(383,188)"/>
<path d="M0 0 C1.65 0.33 3.3 0.66 5 1 C5 1.66 5 2.32 5 3 C2.03 3.66 -0.94 4.32 -4 5 C-4 4.34 -4 3.68 -4 3 C-3.01 3 -2.02 3 -1 3 C-0.67 2.01 -0.34 1.02 0 0 Z " fill="#4B5978" transform="translate(355,186)"/>
<path d="M0 0 C0.66 1.32 1.32 2.64 2 4 C0.71034824 5.37562854 -0.62689293 6.70766393 -2 8 C-2.66 8 -3.32 8 -4 8 C-4 6.68 -4 5.36 -4 4 C-3.34 4 -2.68 4 -2 4 C-2 3.34 -2 2.68 -2 2 C-1.34 2 -0.68 2 0 2 C0 1.34 0 0.68 0 0 Z " fill="#424A6B" transform="translate(429,144)"/>
<path d="M0 0 C0.99 0.66 1.98 1.32 3 2 C1.37660195 3.70884005 -0.29319053 5.37446717 -2 7 C-2.66 7 -3.32 7 -4 7 C-2.92598892 4.08482708 -2.22189824 2.22189824 0 0 Z " fill="#4E5A79" transform="translate(409,91)"/>
<path d="M0 0 C-4.41225737 1.47075246 -7.48281619 2.36884358 -12 1 C-12 0.34 -12 -0.32 -12 -1 C-10.56465159 -1.2226746 -9.12654475 -1.42761906 -7.6875 -1.625 C-6.48673828 -1.79902344 -6.48673828 -1.79902344 -5.26171875 -1.9765625 C-3 -2 -3 -2 0 0 Z " fill="#22274A" transform="translate(451,46)"/>
<path d="M0 0 C0.66 0 1.32 0 2 0 C2.33 0.99 2.66 1.98 3 3 C1.35 4.32 -0.3 5.64 -2 7 C-2.66 6.67 -3.32 6.34 -4 6 C-4 5.34 -4 4.68 -4 4 C-3.01 3.67 -2.02 3.34 -1 3 C-0.67 2.01 -0.34 1.02 0 0 Z " fill="#323C5A" transform="translate(357,227)"/>
<path d="M0 0 C1.61949011 2.57213134 2.04408751 3.67669159 1.625 6.75 C1.41875 7.4925 1.2125 8.235 1 9 C0.01 9 -0.98 9 -2 9 C-1.855625 8.443125 -1.71125 7.88625 -1.5625 7.3125 C-0.97230872 4.88615805 -0.476571 2.45093655 0 0 Z " fill="#484F6F" transform="translate(296,205)"/>
<path d="M0 0 C0.66 0.33 1.32 0.66 2 1 C1.60196439 3.88575819 1.20990931 4.82189513 -1.0625 6.75 C-1.701875 7.1625 -2.34125 7.575 -3 8 C-3 6.35 -3 4.7 -3 3 C-2.01 3 -1.02 3 0 3 C0 2.01 0 1.02 0 0 Z " fill="#47506C" transform="translate(379,121)"/>
<path d="M0 0 C0.99 0.66 1.98 1.32 3 2 C0.6875 4.0625 0.6875 4.0625 -2 6 C-2.99 5.67 -3.98 5.34 -5 5 C-3.35 3.35 -1.7 1.7 0 0 Z " fill="#2C3658" transform="translate(349,95)"/>
<path d="M0 0 C1.2065625 0.0309375 1.2065625 0.0309375 2.4375 0.0625 C2.7675 1.7125 3.0975 3.3625 3.4375 5.0625 C2.1175 4.7325 0.7975 4.4025 -0.5625 4.0625 C-0.2325 3.4025 0.0975 2.7425 0.4375 2.0625 C-0.8825 1.7325 -2.2025 1.4025 -3.5625 1.0625 C-2.5625 0.0625 -2.5625 0.0625 0 0 Z " fill="#3D466F" transform="translate(323.5625,247.9375)"/>
<path d="M0 0 C0.66 0 1.32 0 2 0 C2 0.66 2 1.32 2 2 C1.34 2 0.68 2 0 2 C-0.12375 2.78375 -0.2475 3.5675 -0.375 4.375 C-1 7 -1 7 -3 9 C-4 7 -4 7 -3.1875 4.5 C-2 2 -2 2 0 0 Z " fill="#1B2451" transform="translate(324,201)"/>
<path d="M0 0 C0.33 0 0.66 0 1 0 C1.25 2.3125 1.25 2.3125 1 5 C-1 6.8125 -1 6.8125 -3 8 C-3.33 5.69 -3.66 3.38 -4 1 C-3.01 1.495 -3.01 1.495 -2 2 C-2 2.66 -2 3.32 -2 4 C-1.34 4 -0.68 4 0 4 C0 2.68 0 1.36 0 0 Z " fill="#6C718F" transform="translate(392,189)"/>
<path d="M0 0 C1.5625 1.25 1.5625 1.25 3 3 C2.6875 5.1875 2.6875 5.1875 2 7 C1.01 6.67 0.02 6.34 -1 6 C-1.33 4.35 -1.66 2.7 -2 1 C-1.34 0.67 -0.68 0.34 0 0 Z " fill="#162151" transform="translate(347,145)"/>
<path d="M0 0 C2 3 2 3 1.75 5.0625 C1 7 1 7 -1 9 C-1.66 8.67 -2.32 8.34 -3 8 C-2.09456151 5.28368454 -1.07525194 2.65228812 0 0 Z " fill="#50597C" transform="translate(413,68)"/>
<path d="M0 0 C2.31 0.33 4.62 0.66 7 1 C6.67 1.99 6.34 2.98 6 4 C3.69 3.34 1.38 2.68 -1 2 C-0.67 1.34 -0.34 0.68 0 0 Z " fill="#383F7B" transform="translate(293,239)"/>
<path d="M0 0 C1.125 1.75 1.125 1.75 2 4 C1.125 6.25 1.125 6.25 0 8 C-0.66 8 -1.32 8 -2 8 C-1.125 2.25 -1.125 2.25 0 0 Z " fill="#3E456E" transform="translate(315,219)"/>
<path d="M0 0 C2.475 0.495 2.475 0.495 5 1 C5 2.65 5 4.3 5 6 C4.34 6 3.68 6 3 6 C0 2.53846154 0 2.53846154 0 0 Z " fill="#425171" transform="translate(415,155)"/>
<path d="M0 0 C0.66 0.66 1.32 1.32 2 2 C1.34 2 0.68 2 0 2 C0 3.98 0 5.96 0 8 C-2.475 7.01 -2.475 7.01 -5 6 C-3.68 5.34 -2.36 4.68 -1 4 C-1.33 3.01 -1.66 2.02 -2 1 C-1.34 0.67 -0.68 0.34 0 0 Z " fill="#1D254F" transform="translate(362,140)"/>
<path d="M0 0 C0.99 0.33 1.98 0.66 3 1 C1.25 4.875 1.25 4.875 -1 6 C-1 5.34 -1 4.68 -1 4 C-1.66 3.67 -2.32 3.34 -3 3 C-2.01 2.67 -1.02 2.34 0 2 C0 1.34 0 0.68 0 0 Z " fill="#44496F" transform="translate(368,134)"/>
<path d="M0 0 C0 1.32 0 2.64 0 4 C-2.5 5.75 -2.5 5.75 -5 7 C-5.33 6.01 -5.66 5.02 -6 4 C-2.25 0 -2.25 0 0 0 Z " fill="#444A6B" transform="translate(397,105)"/>
<path d="M0 0 C0.66 0 1.32 0 2 0 C2 1.98 2 3.96 2 6 C1.01 6.33 0.02 6.66 -1 7 C-2 4 -2 4 -1.0625 1.8125 C-0.5365625 0.9153125 -0.5365625 0.9153125 0 0 Z " fill="#5B6082" transform="translate(420,82)"/>
<path d="M0 0 C0.99 0.66 1.98 1.32 3 2 C1.68 3.65 0.36 5.3 -1 7 C-1.33 5.02 -1.66 3.04 -2 1 C-1.34 0.67 -0.68 0.34 0 0 Z " fill="#546882" transform="translate(331,189)"/>
<path d="M0 0 C0.99 0.66 1.98 1.32 3 2 C1.35 3.98 -0.3 5.96 -2 8 C-2.33 7.34 -2.66 6.68 -3 6 C-2.06553465 3.96855359 -1.06775224 1.96466413 0 0 Z " fill="#464C6F" transform="translate(364,139)"/>
<path d="M0 0 C0.66 0 1.32 0 2 0 C2 1.65 2 3.3 2 5 C0.68 5.33 -0.64 5.66 -2 6 C-1.34 4.02 -0.68 2.04 0 0 Z " fill="#3D4165" transform="translate(315,139)"/>
<path d="M0 0 C1.32 0 2.64 0 4 0 C3 3 3 3 0.9375 4.1875 C0.298125 4.455625 -0.34125 4.72375 -1 5 C-0.67 3.35 -0.34 1.7 0 0 Z " fill="#1F274C" transform="translate(399,107)"/>
<path d="M0 0 C0.33 0.66 0.66 1.32 1 2 C1.66 2 2.32 2 3 2 C2.67 3.32 2.34 4.64 2 6 C0.35 5.67 -1.3 5.34 -3 5 C-2.01 3.35 -1.02 1.7 0 0 Z " fill="#363E67" transform="translate(409,97)"/>
</svg>
